<?xml version="1.0" encoding="utf-8"?><svg xmlns="http://www.w3.org/2000/svg" xmlns:xlink="http://www.w3.org/1999/xlink"><symbol fill="none" viewBox="0 0 18 12" id="burger-menu-" xmlns="http://www.w3.org/2000/svg"><path d="M0 12v-2h18v2H0Zm0-5V5h18v2H0Zm0-5V0h18v2H0Z" fill="#0C2549"/></symbol><symbol fill="none" viewBox="0 0 24 24" id="button-arrow" xmlns="http://www.w3.org/2000/svg"><path d="M4 12h16m0 0-6-6m6 6-6 6" stroke="currentColor" stroke-width="2" stroke-linecap="round" stroke-linejoin="round"/></symbol><symbol fill="none" viewBox="0 0 12 9" id="c-check" xmlns="http://www.w3.org/2000/svg"><path d="m1 3.5 3.5 4L11 1" stroke="#0C2549" stroke-width="2" stroke-linecap="round" stroke-linejoin="round"/></symbol><symbol fill="none" viewBox="0 0 14 14" id="carbon_caret-down" xmlns="http://www.w3.org/2000/svg"><path d="M10.5 5.25 7 9.625 3.5 5.25h7Z" fill="currentColor" fill-opacity=".5"/></symbol><symbol fill="none" viewBox="0 0 20 20" id="carbon_phone-voice-filled" xmlns="http://www.w3.org/2000/svg"><path d="M15 8.125h-1.25a1.877 1.877 0 0 0-1.875-1.875V5A3.129 3.129 0 0 1 15 8.125Z" fill="#D1F349"/><path d="M17.5 8.125h-1.25a4.381 4.381 0 0 0-4.375-4.375V2.5A5.632 5.632 0 0 1 17.5 8.125Zm-4.792 5.301 1.4-1.4a1.357 1.357 0 0 1 1.46-.3l1.706.683a1.357 1.357 0 0 1 .851 1.257v3.1a1.353 1.353 0 0 1-1.427 1.357C4.746 17.378 2.333 7.255 1.884 3.38a1.351 1.351 0 0 1 1.347-1.505h3.045a1.356 1.356 0 0 1 1.258.851l.682 1.705a1.356 1.356 0 0 1-.3 1.46l-1.4 1.4s.776 5.458 6.192 6.135Z" fill="#D1F349"/></symbol><symbol fill="none" viewBox="0 0 24 24" id="close-menu" xmlns="http://www.w3.org/2000/svg"><path d="m12 13.4-4.9 4.9a.948.948 0 0 1-.7.275.948.948 0 0 1-.7-.275.948.948 0 0 1-.275-.7c0-.284.091-.517.275-.7l4.9-4.9-4.9-4.9a.948.948 0 0 1-.275-.7c0-.284.091-.517.275-.7a.948.948 0 0 1 .7-.275c.283 0 .516.091.7.275l4.9 4.9 4.9-4.9a.948.948 0 0 1 .7-.275c.283 0 .516.091.7.275a.948.948 0 0 1 .275.7.948.948 0 0 1-.275.7L13.4 12l4.9 4.9a.948.948 0 0 1 .275.7.948.948 0 0 1-.275.7.948.948 0 0 1-.7.275.948.948 0 0 1-.7-.275L12 13.4Z" fill="#0C2549"/></symbol><symbol fill="none" viewBox="0 0 20 20" id="filter-clear" xmlns="http://www.w3.org/2000/svg"><path d="M10 11.167 5.916 15.25a.79.79 0 0 1-.583.23.79.79 0 0 1-.583-.23.79.79 0 0 1-.23-.583.79.79 0 0 1 .23-.583L8.833 10 4.75 5.917a.79.79 0 0 1-.23-.583.79.79 0 0 1 .23-.584.79.79 0 0 1 .583-.229.79.79 0 0 1 .583.23L10 8.833l4.083-4.084a.79.79 0 0 1 .583-.229.79.79 0 0 1 .584.23.79.79 0 0 1 .229.582.79.79 0 0 1-.23.584L11.167 10l4.084 4.084a.79.79 0 0 1 .229.583.79.79 0 0 1-.23.583.79.79 0 0 1-.583.23.79.79 0 0 1-.583-.23L10 11.167Z" fill="currentColor"/></symbol><symbol fill="none" viewBox="0 0 24 24" id="li-leaf" xmlns="http://www.w3.org/2000/svg"><path fill-rule="evenodd" clip-rule="evenodd" d="M13.026 21.342S7.191 9.382 18.067 3.088c0 0 5.372 11.058-5.04 18.254Z" fill="#679707"/><path fill-rule="evenodd" clip-rule="evenodd" d="M13.38 21.318S15.596 8.245 1.2 7.097c0 0 .435 13.049 12.181 14.221Z" fill="#679707"/></symbol><symbol fill="none" viewBox="0 0 20 20" id="location" xmlns="http://www.w3.org/2000/svg"><path d="M10 0a7.467 7.467 0 0 0-7.5 7.5c0 1.441.43 2.555 1.176 3.684l5.535 8.398A.939.939 0 0 0 10 20a.943.943 0 0 0 .79-.418l5.534-8.398C17.07 10.054 17.5 8.94 17.5 7.5 17.5 3.332 14.168 0 10 0Zm0 11.664a4.17 4.17 0 0 1-4.168-4.172A4.17 4.17 0 0 1 10 3.32a4.17 4.17 0 0 1 4.168 4.172A4.17 4.17 0 0 1 10 11.664Z" fill="#ABC73E"/></symbol><symbol fill="none" viewBox="0 0 24 24" id="material-symbols-light_mail" xmlns="http://www.w3.org/2000/svg"><path d="M4.616 19c-.46 0-.845-.154-1.153-.462-.308-.308-.462-.693-.463-1.154V6.616c0-.46.154-.845.463-1.153A1.569 1.569 0 0 1 4.615 5h14.77c.46 0 .844.154 1.152.463.308.309.462.693.463 1.153v10.769c0 .46-.154.844-.463 1.153a1.56 1.56 0 0 1-1.152.462H4.616ZM12 12.116l8-5.231L19.692 6 12 11 4.308 6 4 6.885l8 5.231Z" fill="#D1F349"/></symbol><symbol fill="none" viewBox="0 0 24 24" id="modal-close" xmlns="http://www.w3.org/2000/svg"><path d="m12 13.4-4.9 4.9a.948.948 0 0 1-.7.275.948.948 0 0 1-.7-.275.948.948 0 0 1-.275-.7c0-.284.091-.517.275-.7l4.9-4.9-4.9-4.9a.948.948 0 0 1-.275-.7c0-.284.091-.517.275-.7a.948.948 0 0 1 .7-.275c.283 0 .516.091.7.275l4.9 4.9 4.9-4.9a.948.948 0 0 1 .7-.275c.283 0 .516.091.7.275a.948.948 0 0 1 .275.7.948.948 0 0 1-.275.7L13.4 12l4.9 4.9a.948.948 0 0 1 .275.7.948.948 0 0 1-.275.7.948.948 0 0 1-.7.275.948.948 0 0 1-.7-.275L12 13.4Z" fill="#000" fill-opacity=".23"/></symbol><symbol fill="none" viewBox="0 0 24 24" id="pagination-arrow" xmlns="http://www.w3.org/2000/svg"><path d="M20 12H4m0 0 6-6m-6 6 6 6" stroke="currentColor" stroke-linecap="round" stroke-linejoin="round"/></symbol><symbol fill="none" viewBox="0 0 20 20" id="share-icon" xmlns="http://www.w3.org/2000/svg"><path d="M14.5 12c1.66 0 3 1.34 3 3s-1.34 3-3 3-3-1.34-3-3c0-.24.03-.46.09-.69l-4.38-2.3c-.55.61-1.33.99-2.21.99-1.66 0-3-1.34-3-3s1.34-3 3-3c.88 0 1.66.39 2.21.99l4.38-2.3c-.06-.23-.09-.45-.09-.69 0-1.66 1.34-3 3-3s3 1.34 3 3-1.34 3-3 3c-.88 0-1.66-.39-2.21-.99l-4.38 2.3c.12.452.12.928 0 1.38l4.38 2.3c.55-.61 1.33-.99 2.21-.99Z" fill="currentColor"/></symbol></svg>