<?xml version="1.0" encoding="utf-8"?><svg xmlns="http://www.w3.org/2000/svg" xmlns:xlink="http://www.w3.org/1999/xlink"><symbol fill="none" viewBox="0 0 24 24" id="button-arrow" xmlns="http://www.w3.org/2000/svg"><path d="M4 12h16m0 0-6-6m6 6-6 6" stroke="#D1F349" stroke-width="2" stroke-linecap="round" stroke-linejoin="round"/></symbol><symbol fill="none" viewBox="0 0 14 14" id="carbon_caret-down" xmlns="http://www.w3.org/2000/svg"><path d="M10.5 5.25 7 9.625 3.5 5.25h7Z" fill="#0C2549" fill-opacity=".5"/></symbol><symbol fill="none" viewBox="0 0 20 20" id="carbon_phone-voice-filled" xmlns="http://www.w3.org/2000/svg"><path d="M15 8.125h-1.25a1.877 1.877 0 0 0-1.875-1.875V5A3.129 3.129 0 0 1 15 8.125Z" fill="#D1F349"/><path d="M17.5 8.125h-1.25a4.381 4.381 0 0 0-4.375-4.375V2.5A5.632 5.632 0 0 1 17.5 8.125Zm-4.792 5.301 1.4-1.4a1.357 1.357 0 0 1 1.46-.3l1.706.683a1.357 1.357 0 0 1 .851 1.257v3.1a1.353 1.353 0 0 1-1.427 1.357C4.746 17.378 2.333 7.255 1.884 3.38a1.351 1.351 0 0 1 1.347-1.505h3.045a1.356 1.356 0 0 1 1.258.851l.682 1.705a1.356 1.356 0 0 1-.3 1.46l-1.4 1.4s.776 5.458 6.192 6.135Z" fill="#D1F349"/></symbol><symbol fill="none" viewBox="0 0 24 24" id="material-symbols-light_mail" xmlns="http://www.w3.org/2000/svg"><path d="M4.616 19c-.46 0-.845-.154-1.153-.462-.308-.308-.462-.693-.463-1.154V6.616c0-.46.154-.845.463-1.153A1.569 1.569 0 0 1 4.615 5h14.77c.46 0 .844.154 1.152.463.308.309.462.693.463 1.153v10.769c0 .46-.154.844-.463 1.153a1.56 1.56 0 0 1-1.152.462H4.616ZM12 12.116l8-5.231L19.692 6 12 11 4.308 6 4 6.885l8 5.231Z" fill="#D1F349"/></symbol></svg>