<svg width="83" height="137" viewBox="0 0 83 137" fill="none" xmlns="http://www.w3.org/2000/svg">
<path d="M0 41.25C0 18.4683 18.4683 0 41.25 0C64.0317 0 82.5 18.4683 82.5 41.25V68.5424C82.5 91.8431 71.6703 113.82 53.1933 128.016L47.2529 132.58C43.8562 135.19 39.1333 135.204 35.7214 132.614L29.6553 128.009C10.9727 113.829 0 91.7244 0 68.2695V41.25Z" fill="#869B47" fill-opacity="0.3"/>
<path d="M10.9016 86.6924H69.3278" stroke="#336667" stroke-width="2" stroke-miterlimit="10" stroke-linecap="round" stroke-linejoin="round"/>
<path d="M20.4018 78.8105H18.0268C14.0913 78.8105 10.9016 75.6028 10.9016 71.6452H13.2767C17.2121 71.6452 20.4018 74.8529 20.4018 78.8105Z" stroke="#336667" stroke-width="2" stroke-miterlimit="10" stroke-linecap="round" stroke-linejoin="round"/>
<path d="M22.7769 78.8105H20.4019C20.4019 74.8529 23.5915 71.6452 27.527 71.6452H29.9021C29.9021 75.6028 26.7124 78.8105 22.7769 78.8105Z" stroke="#336667" stroke-width="2" stroke-miterlimit="10" stroke-linecap="round" stroke-linejoin="round"/>
<path d="M20.4019 86.6924V78.8105" stroke="#336667" stroke-width="2" stroke-miterlimit="10" stroke-linecap="round" stroke-linejoin="round"/>
<path d="M40.1147 69.2568H37.7397C33.8042 69.2568 30.6145 66.0491 30.6145 62.0915H32.9896C36.925 62.0915 40.1147 65.2992 40.1147 69.2568Z" stroke="#336667" stroke-width="2" stroke-miterlimit="10" stroke-linecap="round" stroke-linejoin="round"/>
<path d="M42.4898 69.2568H40.1147C40.1147 65.2992 43.3044 62.0915 47.2399 62.0915H49.6149C49.6149 66.0491 46.4253 69.2568 42.4898 69.2568Z" stroke="#336667" stroke-width="2" stroke-miterlimit="10" stroke-linecap="round" stroke-linejoin="round"/>
<path d="M40.1147 86.6924V69.2566" stroke="#336667" stroke-width="2" stroke-miterlimit="10" stroke-linecap="round" stroke-linejoin="round"/>
<path d="M59.8276 59.7026H57.4525C53.5171 59.7026 50.3274 56.4949 50.3274 52.5373H52.7024C56.6379 52.5373 59.8276 55.745 59.8276 59.7026Z" stroke="#336667" stroke-width="2" stroke-miterlimit="10" stroke-linecap="round" stroke-linejoin="round"/>
<path d="M62.2027 59.7026H59.8276C59.8276 55.745 63.0173 52.5373 66.9528 52.5373H69.3278C69.3278 56.4949 66.1381 59.7026 62.2027 59.7026Z" stroke="#336667" stroke-width="2" stroke-miterlimit="10" stroke-linecap="round" stroke-linejoin="round"/>
<path d="M59.8276 86.6924V59.7028" stroke="#336667" stroke-width="2" stroke-miterlimit="10" stroke-linecap="round" stroke-linejoin="round"/>
<path d="M44.8648 52.5376H40.1147" stroke="#336667" stroke-width="2" stroke-miterlimit="10" stroke-linecap="round" stroke-linejoin="round"/>
<path d="M16.008 52.5376H10.9016" stroke="#336667" stroke-width="2" stroke-miterlimit="10" stroke-linecap="round" stroke-linejoin="round"/>
<path d="M25.8644 52.5376H20.7581" stroke="#336667" stroke-width="2" stroke-miterlimit="10" stroke-linecap="round" stroke-linejoin="round"/>
<path d="M35.3646 52.5376H30.6145" stroke="#336667" stroke-width="2" stroke-miterlimit="10" stroke-linecap="round" stroke-linejoin="round"/>
<path d="M16.008 62.0913H10.9016" stroke="#336667" stroke-width="2" stroke-miterlimit="10" stroke-linecap="round" stroke-linejoin="round"/>
<path d="M25.8644 62.0913H20.7581" stroke="#336667" stroke-width="2" stroke-miterlimit="10" stroke-linecap="round" stroke-linejoin="round"/>
<path d="M56.74 32.713V37.49L59.115 39.8784" stroke="#336667" stroke-width="2" stroke-miterlimit="10" stroke-linecap="round" stroke-linejoin="round"/>
<path d="M58.7918 46.8205C58.118 46.9694 57.4301 47.0443 56.7402 47.0439C51.4937 47.0439 47.24 42.7662 47.24 37.4901C47.24 32.2139 51.4937 27.9363 56.7402 27.9363C61.9866 27.9363 66.2404 32.2139 66.2404 37.4901C66.2404 38.1984 66.1637 38.8888 66.0183 39.5531" stroke="#336667" stroke-width="2" stroke-miterlimit="10" stroke-linecap="round" stroke-linejoin="round"/>
<path d="M63.509 44.9912C63.886 44.9912 64.1965 44.6829 64.1965 44.2969C64.1965 43.9109 63.886 43.6025 63.509 43.6025C63.1321 43.6026 62.8216 43.9109 62.8215 44.2969C62.8215 44.6829 63.1321 44.9912 63.509 44.9912Z" stroke="#336667"/>
</svg>
