<svg width="83" height="137" viewBox="0 0 83 137" fill="none" xmlns="http://www.w3.org/2000/svg">
<path d="M0 41.25C0 18.4683 18.4683 0 41.25 0C64.0317 0 82.5 18.4683 82.5 41.25V68.5424C82.5 91.8431 71.6703 113.82 53.1933 128.016L47.2529 132.58C43.8562 135.19 39.1333 135.204 35.7214 132.614L29.6553 128.009C10.9727 113.829 0 91.7244 0 68.2695V41.25Z" fill="#869B47" fill-opacity="0.3"/>
<g clip-path="url(#clip0_1_1153)">
<path d="M52.7081 47.327V68.5432C52.7081 68.7862 52.6116 69.0191 52.4398 69.1909C52.268 69.3627 52.035 69.4592 51.7921 69.4592C51.5491 69.4592 51.3162 69.3627 51.1444 69.1909C50.9726 69.0191 50.8761 68.7862 50.8761 68.5432V47.327C50.8761 47.084 50.9726 46.851 51.1444 46.6793C51.3162 46.5075 51.5491 46.411 51.7921 46.411C52.035 46.411 52.268 46.5075 52.4398 46.6793C52.6116 46.851 52.7081 47.084 52.7081 47.327ZM38.0364 85.4207C38.0364 85.6636 37.9399 85.8966 37.7681 86.0684C37.5963 86.2402 37.3633 86.3367 37.1204 86.3367H12.6398C10.37 86.3367 8.52344 84.4903 8.52344 82.2205V38.1043C8.52344 35.8345 10.37 33.988 12.6398 33.988H20.1714C20.3318 33.5229 20.6164 33.1081 21.0108 32.7767C21.6498 32.2397 22.4546 32.0231 23.2769 32.1668L25.9695 32.6375C26.2502 30.323 28.2268 28.5239 30.6158 28.5239C33.0047 28.5239 34.9815 30.323 35.2622 32.6375L37.9548 32.1668C38.7771 32.023 39.5821 32.2398 40.2208 32.7767C40.6153 33.1081 40.8999 33.5229 41.0603 33.988H48.5919C50.8617 33.988 52.7081 35.8345 52.7081 38.1043V43.7447C52.7081 43.9876 52.6116 44.2206 52.4398 44.3924C52.268 44.5642 52.035 44.6607 51.7921 44.6607C51.5491 44.6607 51.3162 44.5642 51.1444 44.3924C50.9726 44.2206 50.8761 43.9876 50.8761 43.7447V38.1043C50.8761 36.8447 49.8514 35.82 48.5919 35.82H41.2118V37.2075H48.5727C48.8156 37.2075 49.0486 37.3039 49.2203 37.4759C49.3054 37.5609 49.3729 37.6619 49.4189 37.773C49.465 37.8841 49.4887 38.0032 49.4887 38.1235V69.5686C49.4887 69.8116 49.3922 70.0446 49.2204 70.2163C49.0486 70.3881 48.8156 70.4846 48.5727 70.4846C48.3297 70.4846 48.0968 70.3881 47.925 70.2163C47.7532 70.0446 47.6567 69.8116 47.6567 69.5686V39.0395H41.2078C41.1868 39.2669 41.0817 39.4782 40.913 39.6321C40.7444 39.7859 40.5243 39.8713 40.296 39.8713H20.9357C20.7074 39.8712 20.4874 39.7859 20.3187 39.632C20.15 39.4782 20.0449 39.2669 20.0239 39.0395H13.575V56.9204C13.575 57.1634 13.4785 57.3963 13.3067 57.5681C13.1349 57.7399 12.9019 57.8364 12.659 57.8364C12.416 57.8364 12.1831 57.7399 12.0113 57.5681C11.8395 57.3963 11.743 57.1634 11.743 56.9204V38.1235C11.743 37.8806 11.8395 37.6476 12.0113 37.4758C12.1831 37.304 12.416 37.2075 12.659 37.2075H20.0198V35.82H12.6398C11.3802 35.82 10.3555 36.8447 10.3555 38.1043V82.2204C10.3555 83.4799 11.3802 84.5045 12.6398 84.5045H37.1204C37.3633 84.5045 37.5963 84.601 37.7681 84.7728C37.9399 84.9446 38.0364 85.1777 38.0364 85.4207ZM21.8517 38.0392H39.3798V34.904C39.3798 34.6031 39.2725 34.3727 39.0422 34.1791C38.8119 33.9856 38.5667 33.92 38.27 33.9715L34.538 34.6238C34.4064 34.6468 34.2713 34.6408 34.1422 34.606C34.0132 34.5713 33.8933 34.5088 33.7909 34.4228C33.6886 34.3368 33.6063 34.2295 33.5499 34.1084C33.4934 33.9872 33.4642 33.8552 33.4642 33.7215V33.2045C33.4642 31.6338 32.1863 30.356 30.6156 30.356C29.0449 30.356 27.7671 31.6338 27.7671 33.2045V33.7215C27.7671 33.8552 27.7379 33.9872 27.6814 34.1083C27.625 34.2294 27.5427 34.3367 27.4403 34.4227C27.3381 34.5087 27.2182 34.5712 27.0891 34.606C26.9601 34.6407 26.825 34.6468 26.6934 34.6238L22.9613 33.9715C22.6649 33.9194 22.4194 33.9856 22.1892 34.1791C21.9589 34.3727 21.8516 34.6031 21.8516 34.904L21.8517 38.0392ZM37.1204 81.285H13.575V60.5028C13.575 60.2599 13.4785 60.0269 13.3067 59.8551C13.1349 59.6833 12.9019 59.5868 12.659 59.5868C12.416 59.5868 12.1831 59.6833 12.0113 59.8551C11.8395 60.0269 11.743 60.2599 11.743 60.5028V82.2009C11.743 82.4438 11.8395 82.6768 12.0113 82.8486C12.1831 83.0204 12.416 83.1169 12.659 83.1169H37.1204C37.3633 83.1169 37.5963 83.0204 37.7681 82.8486C37.9399 82.6768 38.0364 82.4438 38.0364 82.2009C38.0364 81.9579 37.9399 81.7249 37.7681 81.5532C37.5963 81.3814 37.3633 81.285 37.1204 81.285ZM43.1456 62.1785H18.0859C17.8429 62.1785 17.6099 62.275 17.4381 62.4468C17.2663 62.6186 17.1698 62.8515 17.1698 63.0945C17.1698 63.3374 17.2663 63.5704 17.4381 63.7422C17.6099 63.914 17.8429 64.0105 18.0859 64.0105H43.1456C43.3885 64.0105 43.6215 63.914 43.7933 63.7422C43.9651 63.5704 44.0616 63.3374 44.0616 63.0945C44.0616 62.8515 43.9651 62.6186 43.7933 62.4468C43.6215 62.275 43.3885 62.1785 43.1456 62.1785ZM43.1456 68.0429H18.0859C17.8429 68.0429 17.6099 68.1394 17.4381 68.3112C17.2663 68.483 17.1698 68.716 17.1698 68.959C17.1698 69.2019 17.2663 69.4349 17.4381 69.6067C17.6099 69.7785 17.8429 69.875 18.0859 69.875H43.1456C43.3885 69.875 43.6215 69.7785 43.7933 69.6067C43.9651 69.4349 44.0616 69.2019 44.0616 68.959C44.0616 68.716 43.9651 68.483 43.7933 68.3112C43.6215 68.1394 43.3885 68.0429 43.1456 68.0429ZM43.1456 50.4494H36.7333C36.4904 50.4494 36.2574 50.5459 36.0856 50.7177C35.9138 50.8895 35.8173 51.1225 35.8173 51.3654C35.8173 51.6084 35.9138 51.8414 36.0856 52.0131C36.2574 52.1849 36.4904 52.2814 36.7333 52.2814H43.1456C43.3885 52.2814 43.6215 52.1849 43.7933 52.0131C43.9651 51.8414 44.0616 51.6084 44.0616 51.3654C44.0616 51.1225 43.9651 50.8895 43.7933 50.7177C43.6215 50.5459 43.3885 50.4494 43.1456 50.4494ZM43.1456 56.3139H36.7333C36.4904 56.3139 36.2574 56.4104 36.0856 56.5822C35.9138 56.754 35.8173 56.9869 35.8173 57.2299C35.8173 57.4728 35.9138 57.7058 36.0856 57.8776C36.2574 58.0494 36.4904 58.1459 36.7333 58.1459H43.1456C43.3885 58.1459 43.6215 58.0494 43.7933 57.8776C43.9651 57.7058 44.0616 57.4728 44.0616 57.2299C44.0616 56.9869 43.9651 56.754 43.7933 56.5822C43.6215 56.4104 43.3885 56.3139 43.1456 56.3139ZM43.1456 44.585H36.7333C36.4904 44.585 36.2574 44.6815 36.0856 44.8532C35.9138 45.025 35.8173 45.258 35.8173 45.501C35.8173 45.7439 35.9138 45.9769 36.0856 46.1487C36.2574 46.3205 36.4904 46.417 36.7333 46.417H43.1456C43.3885 46.417 43.6215 46.3205 43.7933 46.1487C43.9651 45.9769 44.0616 45.7439 44.0616 45.501C44.0616 45.258 43.9651 45.025 43.7933 44.8532C43.6215 44.6815 43.3885 44.585 43.1456 44.585ZM37.3169 73.9074H18.0859C17.8429 73.9074 17.6099 74.0039 17.4381 74.1757C17.2663 74.3475 17.1698 74.5805 17.1698 74.8234C17.1698 75.0664 17.2663 75.2993 17.4381 75.4711C17.6099 75.6429 17.8429 75.7394 18.0859 75.7394H37.3171C37.56 75.7394 37.793 75.6429 37.9648 75.4711C38.1366 75.2993 38.2331 75.0664 38.2331 74.8234C38.2331 74.5805 38.1366 74.3475 37.9648 74.1757C37.793 74.0039 37.56 73.9074 37.3171 73.9074H37.3169ZM72.9496 83.6056C73.4672 84.2245 73.7505 85.0057 73.7498 85.8125C73.7498 87.1491 72.9854 88.3098 71.8714 88.8828C72.2166 89.4057 72.4003 90.0187 72.3997 90.6452C72.3997 92.4173 70.958 93.859 69.1859 93.859H65.6532C64.905 93.918 64.1232 93.9942 63.2959 94.0745C61.3155 94.2674 59.1705 94.4761 57.117 94.4761C55.8698 94.4761 54.6565 94.3991 53.5341 94.1948C52.5699 94.0192 51.8663 93.8094 51.1857 93.6063C50.2805 93.3363 49.4861 93.1003 48.1959 92.9905C47.8188 93.766 47.0254 94.303 46.1069 94.303H41.9632C40.6819 94.303 39.6393 93.2603 39.6393 91.9788V74.8518C39.6393 73.5703 40.6819 72.5276 41.9632 72.5276H46.1069C46.9059 72.5276 47.6119 72.9331 48.0304 73.5491C51.2668 72.9572 53.3107 71.7668 54.433 69.8307C55.5426 67.9163 55.8762 65.1473 55.5145 60.8525C55.425 59.7881 56.1862 58.8611 57.2474 58.742C58.9917 58.5462 60.4232 59.0013 61.5005 60.0961C64.2133 62.8529 63.7538 68.9786 63.3718 72.2205H70.3353C72.2382 72.2205 73.7864 73.7687 73.7864 75.6716C73.7864 76.5179 73.4797 77.2935 72.9723 77.8944C73.8798 78.5168 74.4766 79.5609 74.4766 80.7421C74.4766 81.9331 73.87 82.9851 72.9497 83.6055L72.9496 83.6056ZM71.0253 82.3613C71.918 82.3613 72.6444 81.6349 72.6444 80.7422C72.6444 79.8495 71.918 79.1231 71.0253 79.1231H64.3224C63.4297 79.1231 62.7034 79.8495 62.7034 80.7422C62.7034 81.6349 63.4297 82.3613 64.3224 82.3613H71.0253ZM65.3063 74.0527C64.4136 74.0527 63.6872 74.7791 63.6872 75.6718C63.6872 76.5645 64.4136 77.2909 65.3063 77.2909H70.3351C71.2278 77.2909 71.9543 76.5644 71.9543 75.6716C71.9543 74.7789 71.2278 74.0525 70.3351 74.0525H65.3063V74.0527ZM62.8488 92.2773C62.5558 91.7834 62.4014 91.2196 62.4019 90.6454C62.4019 89.9913 62.5987 89.3826 62.9357 88.8744C61.8306 88.2985 61.0738 87.1425 61.0738 85.8126C61.0738 84.8595 61.4623 83.9955 62.0892 83.3702C61.5176 82.8837 61.106 82.215 60.9457 81.4544C60.1836 82.1152 59.1999 82.675 57.9372 83.0906C57.8448 83.1211 57.7481 83.1368 57.6508 83.1369C57.4331 83.1367 57.2226 83.0589 57.057 82.9176C56.8914 82.7762 56.7816 82.5805 56.7471 82.3656C56.7127 82.1506 56.7559 81.9304 56.8691 81.7444C56.9822 81.5584 57.1579 81.4188 57.3646 81.3505C60.7558 80.2344 61.9319 77.8836 61.424 73.2364C61.4236 73.2328 61.4237 73.2293 61.4233 73.2256C61.4219 73.2111 61.4215 73.1966 61.4207 73.1819C61.4198 73.1642 61.4189 73.1466 61.419 73.129C61.419 73.1165 61.4199 73.1039 61.4206 73.0912C61.4215 73.0713 61.4228 73.0516 61.425 73.0321C61.4256 73.028 61.4254 73.024 61.426 73.0199C61.7184 70.7481 62.6085 63.8345 60.1946 61.3814C59.5227 60.6988 58.6256 60.431 57.4518 60.5629C57.4191 60.5668 57.3893 60.5831 57.3685 60.6085C57.3476 60.6339 57.3374 60.6664 57.34 60.6991C57.7352 65.3909 57.3273 68.4907 56.0178 70.75C54.6155 73.169 52.193 74.6382 48.4308 75.3383V78.6007C48.4308 78.8436 48.3343 79.0766 48.1625 79.2484C47.9908 79.4202 47.7578 79.5167 47.5148 79.5167C47.2719 79.5167 47.0389 79.4202 46.8671 79.2484C46.6953 79.0766 46.5988 78.8436 46.5988 78.6007V74.8521C46.5988 74.5852 46.3735 74.3599 46.1068 74.3599H41.9631C41.6964 74.3599 41.4712 74.5852 41.4712 74.8521V91.9791C41.4712 92.2459 41.6966 92.4712 41.9631 92.4712H46.1068C46.3735 92.4712 46.5988 92.2459 46.5988 91.9791V82.1829C46.5988 81.94 46.6953 81.707 46.8671 81.5352C47.0389 81.3634 47.2719 81.2669 47.5148 81.2669C47.7578 81.2669 47.9908 81.3634 48.1625 81.5352C48.3343 81.707 48.4308 81.94 48.4308 82.1829V91.1726C49.8686 91.3029 50.8036 91.5809 51.7093 91.8511C52.3424 92.0398 52.997 92.2352 53.8622 92.3927C56.5021 92.8734 59.8517 92.5687 62.8488 92.2777V92.2773ZM70.5677 90.6452C70.5677 89.8835 69.9479 89.2636 69.1859 89.2636H65.6156C64.8538 89.2636 64.2339 89.8834 64.2339 90.6454C64.2339 91.4074 64.8537 92.027 65.6156 92.027H69.1859C69.9478 92.027 70.5677 91.4072 70.5677 90.6452ZM71.9176 85.8125C71.9176 84.9197 71.1912 84.1933 70.2985 84.1933H64.525C63.6322 84.1933 62.9058 84.9197 62.9058 85.8125C62.9058 86.7052 63.6322 87.4316 64.525 87.4316H70.2985C71.1912 87.4316 71.9176 86.7052 71.9176 85.8125ZM30.9186 55.4104C31.1278 55.5338 31.3776 55.569 31.6128 55.5083C31.848 55.4476 32.0495 55.2959 32.1729 55.0867C32.9021 53.8477 33.2863 52.4361 33.2857 50.9985C33.2857 46.5553 29.6708 42.9406 25.2278 42.9406C20.7847 42.9406 17.1698 46.5553 17.1698 50.9985C17.1698 55.4417 20.7846 59.0563 25.2278 59.0563C26.6654 59.057 28.0771 58.6727 29.3161 57.9435C29.5253 57.8201 29.677 57.6186 29.7377 57.3834C29.7984 57.1481 29.7632 56.8984 29.6398 56.6892C29.5164 56.4799 29.3149 56.3283 29.0797 56.2675C28.8445 56.2068 28.5948 56.242 28.3855 56.3654C27.4285 56.9284 26.3382 57.2249 25.2279 57.2241C21.7949 57.2241 19.002 54.4312 19.002 50.9984C19.002 47.5655 21.7949 44.7725 25.2279 44.7725C28.6609 44.7725 31.4538 47.5654 31.4538 50.9984C31.4538 52.1113 31.1567 53.2032 30.595 54.156C30.4716 54.3653 30.4364 54.615 30.4971 54.8502C30.5578 55.0854 30.7095 55.2869 30.9187 55.4103L30.9186 55.4104ZM27.4919 48.1802L23.9948 51.6773L23.1093 50.1435C22.9855 49.9377 22.7859 49.7889 22.5534 49.7288C22.3209 49.6688 22.0742 49.7024 21.8663 49.8225C21.6583 49.9425 21.5058 50.1394 21.4416 50.3707C21.3773 50.6021 21.4065 50.8494 21.5227 51.0595L23.0051 53.6271C23.0754 53.7487 23.1727 53.8526 23.2895 53.9307C23.4063 54.0087 23.5395 54.0589 23.6788 54.0772C23.8181 54.0955 23.9597 54.0816 24.0928 54.0364C24.2258 53.9912 24.3467 53.916 24.446 53.8167L28.7871 49.4754C28.9549 49.3028 29.048 49.0711 29.0463 48.8304C29.0445 48.5898 28.9482 48.3594 28.778 48.1892C28.6078 48.019 28.3774 47.9227 28.1367 47.921C27.896 47.9193 27.6643 48.0124 27.4918 48.1802H27.4919Z" fill="#336667"/>
</g>
<defs>
<clipPath id="clip0_1_1153">
<rect width="67" height="67" fill="white" transform="translate(8 28)"/>
</clipPath>
</defs>
</svg>
