<svg width="83" height="137" viewBox="0 0 83 137" fill="none" xmlns="http://www.w3.org/2000/svg">
<path d="M0 41.25C0 18.4683 18.4683 0 41.25 0C64.0317 0 82.5 18.4683 82.5 41.25V68.5424C82.5 91.8431 71.6703 113.82 53.1933 128.016L47.2529 132.58C43.8562 135.19 39.1333 135.204 35.7214 132.614L29.6553 128.009C10.9727 113.829 0 91.7244 0 68.2695V41.25Z" fill="#869B47" fill-opacity="0.3"/>
<path d="M55.1408 65.251C55.1237 65.2437 55.1058 65.2413 55.0887 65.2348C54.9555 65.1925 54.8247 65.1462 54.689 65.1096L52.0004 64.3516L49.6994 62.0506C49.5582 61.9089 49.3696 61.8245 49.1698 61.8134C48.9701 61.8023 48.7733 61.8653 48.6172 61.9904L48.5904 62.0124L48.1654 60.3102C49.3704 58.8907 50.2796 57.1561 50.6062 55.2223C52.3352 54.773 53.1282 52.6402 53.1818 51.3865C57.5539 49.9589 59.6875 48.3177 59.6875 46.375C59.6875 43.4792 55.3796 42.0509 50.7679 41.3497C49.1534 38.5157 46.3999 35 41 35C35.5847 35 32.8311 38.536 31.2183 41.3733C30.7349 41.4464 30.2531 41.526 29.7786 41.6154C24.7549 42.566 22.3125 44.1236 22.3125 46.375C22.3125 48.3177 24.4461 49.9589 28.8182 51.3865C28.8718 52.6386 29.6632 54.7681 31.3881 55.2207C31.7123 57.2064 32.6345 58.9224 33.8346 60.311L33.4096 62.0124L33.382 61.9904C33.2259 61.8653 33.0291 61.8023 32.8294 61.8134C32.6296 61.8245 32.441 61.9089 32.2997 62.0506L30.0109 64.3394L27.3207 65.1064C27.1818 65.1438 27.0477 65.1909 26.9121 65.2339C26.8934 65.2404 26.8747 65.2429 26.8568 65.251C23.2038 66.4421 20.6875 69.8627 20.6875 73.7424V86.1875C20.6875 86.403 20.7731 86.6097 20.9255 86.762C21.0778 86.9144 21.2845 87 21.5 87C21.7155 87 21.9222 86.9144 22.0745 86.762C22.2269 86.6097 22.3125 86.403 22.3125 86.1875V73.7424C22.3125 70.9344 23.9253 68.4214 26.375 67.2002V86.1875C26.375 86.403 26.4606 86.6097 26.613 86.762C26.7653 86.9144 26.972 87 27.1875 87C27.403 87 27.6097 86.9144 27.762 86.762C27.9144 86.6097 28 86.403 28 86.1875V66.603L29.625 66.1391V75.625C29.625 75.8405 29.7106 76.0472 29.863 76.1995C30.0153 76.3519 30.222 76.4375 30.4375 76.4375H51.5625C51.778 76.4375 51.9847 76.3519 52.137 76.1995C52.2894 76.0472 52.375 75.8405 52.375 75.625V66.1456L54 66.6038V86.1875C54 86.403 54.0856 86.6097 54.238 86.762C54.3903 86.9144 54.597 87 54.8125 87C55.028 87 55.2347 86.9144 55.387 86.762C55.5394 86.6097 55.625 86.403 55.625 86.1875V67.1986C56.8433 67.8041 57.8689 68.7371 58.5864 69.893C59.304 71.0489 59.6853 72.3819 59.6875 73.7424V86.1875C59.6875 86.403 59.7731 86.6097 59.9255 86.762C60.0778 86.9144 60.2845 87 60.5 87C60.7155 87 60.9222 86.9144 61.0745 86.762C61.2269 86.6097 61.3125 86.403 61.3125 86.1875V73.7424C61.3125 69.8587 58.7921 66.4356 55.1408 65.251ZM31.25 67.4309L35.4831 72.8739C35.6375 73.0721 35.8748 73.1875 36.125 73.1875H36.1551C36.2837 73.1828 36.4093 73.1475 36.5216 73.0846C36.634 73.0218 36.7297 72.9331 36.801 72.8259C38.0141 71.0068 40.3199 70.1821 41 69.9716C41.6801 70.1821 43.9859 71.0068 45.199 72.8259C45.2703 72.9331 45.366 73.0218 45.4784 73.0846C45.5907 73.1475 45.7163 73.1828 45.8449 73.1875H45.875C46.1252 73.1875 46.3625 73.0721 46.5169 72.8739L50.75 67.4309V74.8125H31.25V67.4309ZM50.4802 65.1299L45.8677 71.0604C44.8577 69.9708 43.5992 69.2688 42.6421 68.8512L49.0641 63.7138L50.4802 65.1299ZM50.75 49.1765C50.6444 49.2035 50.5402 49.2361 50.438 49.274C50.3152 49.2769 50.1947 49.3083 50.0862 49.3658C49.6929 48.8653 49.1136 48.0171 48.7253 46.9608C49.4207 47.0819 50.1065 47.2192 50.75 47.3939V49.1765ZM50.75 53.2796V50.9063C51.1465 50.7097 51.4016 50.6991 51.4585 50.7292C51.4748 50.7381 51.5625 50.8714 51.5625 51.25C51.5625 51.8253 51.2586 52.7507 50.75 53.2796ZM41 36.625C44.9146 36.625 47.1823 38.783 48.7001 41.0807C45.5939 40.7444 42.6193 40.6875 41 40.6875C39.8934 40.6875 36.7189 40.7249 33.2853 41.1035C34.8031 38.7976 37.0732 36.625 41 36.625ZM23.9375 46.375C23.9375 43.736 32.7288 42.3125 41 42.3125C49.2712 42.3125 58.0625 43.736 58.0625 46.375C58.0625 46.7829 57.6579 48.1934 52.7926 49.8037C52.6792 49.6417 52.5377 49.5011 52.375 49.3886V47.1875C52.375 47.0413 52.3726 46.8966 52.3669 46.752C52.361 46.5835 52.3028 46.4211 52.2005 46.2872C52.0981 46.1532 51.9567 46.0545 51.7957 46.0045C50.5631 45.6218 49.1778 45.3553 47.7909 45.1684L47.7827 45.1676C45.2136 44.8207 42.6364 44.75 41 44.75C39.3636 44.75 36.7856 44.8207 34.2156 45.1676L34.2107 45.1684C32.823 45.3561 31.4385 45.6226 30.2051 46.0045C30.0441 46.0545 29.9027 46.1532 29.8003 46.2872C29.698 46.4211 29.6398 46.5835 29.6339 46.752C29.6274 46.8966 29.625 47.0413 29.625 47.1875V49.3886C29.4623 49.5011 29.3208 49.6417 29.2074 49.8037C24.3421 48.1934 23.9375 46.7829 23.9375 46.375ZM31.8846 49.4032C31.681 49.3069 31.4684 49.2307 31.25 49.1757V47.3931C31.9178 47.2174 32.5935 47.0729 33.2748 46.96C32.8766 48.0439 32.2778 48.9076 31.8846 49.4032ZM30.5415 50.7292C30.5984 50.6975 30.8535 50.7097 31.25 50.9063V53.2796C30.7414 52.7507 30.4375 51.8253 30.4375 51.25C30.4375 50.8714 30.5253 50.7381 30.5415 50.7292ZM32.875 50.7503C33.3698 50.1881 34.5187 48.7044 35.0411 46.6992C37.3096 46.4327 39.5408 46.375 41 46.375C42.4576 46.375 44.6855 46.4319 46.9508 46.6984C47.4675 48.6874 48.6213 50.1791 49.125 50.7544V53.6875C49.125 58.2456 44.5076 62.625 41 62.625C38.2188 62.625 32.875 58.8509 32.875 53.6875V50.7503ZM35.1768 61.6451C37.1325 63.3116 39.4091 64.25 41 64.25C42.7631 64.25 44.9618 63.2823 46.8273 61.6606L47.1945 63.1287L41 68.085L34.8055 63.1296L35.1768 61.6451ZM32.9351 63.7138L39.3571 68.8512C38.4 69.2696 37.1414 69.9708 36.1315 71.0604L31.5189 65.1299L32.9351 63.7138Z" fill="#336667"/>
<path d="M51.5625 79.6875H43.4375C43.222 79.6875 43.0153 79.7731 42.863 79.9255C42.7106 80.0778 42.625 80.2845 42.625 80.5V82.9375C42.625 85.1776 44.4474 87 46.6875 87H48.3125C50.5526 87 52.375 85.1776 52.375 82.9375V80.5C52.375 80.2845 52.2894 80.0778 52.137 79.9255C51.9847 79.7731 51.778 79.6875 51.5625 79.6875ZM50.75 82.9375C50.75 84.2814 49.6564 85.375 48.3125 85.375H46.6875C45.3436 85.375 44.25 84.2814 44.25 82.9375V81.3125H50.75V82.9375Z" fill="#336667"/>
</svg>
