<svg width="83" height="137" viewBox="0 0 83 137" fill="none" xmlns="http://www.w3.org/2000/svg">
<path d="M0 41.25C0 18.4683 18.4683 0 41.25 0C64.0317 0 82.5 18.4683 82.5 41.25V68.5424C82.5 91.8431 71.6703 113.82 53.1933 128.016L47.2529 132.58C43.8562 135.19 39.1333 135.204 35.7214 132.614L29.6553 128.009C10.9727 113.829 0 91.7244 0 68.2695V41.25Z" fill="#869B47" fill-opacity="0.3"/>
<g clip-path="url(#clip0_1_1148)">
<path d="M28.5968 48.6207L20.9823 41.0063M14.4914 51.802L16.6439 53.9545C19.8508 57.1614 25.0504 57.1614 28.2573 53.9545C29.8371 52.3747 29.8371 49.8135 28.2573 48.2338C29.8371 49.8135 32.3983 49.8135 33.978 48.2338C37.185 45.0268 37.185 39.8273 33.978 36.6203L29.7019 32.3442C26.4949 29.1372 21.2954 29.1372 18.0884 32.3442L16.9134 33.5192L13.8064 32.2617L12.0351 34.033L13.5429 36.8897L12.3679 38.0647C9.16091 41.2717 9.16091 46.4713 12.3679 49.6782L13.0293 50.3397M54.9639 57.0474V46.279M64.2984 73.427L56.684 81.0414M48.9062 71.4374L48.0217 72.322C44.8148 75.5289 44.8148 80.7285 48.0217 83.9354L49.1968 85.1105L47.9392 88.2174L49.7105 89.9887L52.5672 88.4809L53.7423 89.656C56.9492 92.863 62.1488 92.863 65.3557 89.656L69.6319 85.3799C72.8388 82.1729 72.8388 76.9734 69.6319 73.7664C68.0521 72.1866 65.4909 72.1866 63.9112 73.7664C65.4909 72.1866 65.4909 69.6255 63.9112 68.0457C60.7042 64.8388 55.5047 64.8388 52.2977 68.0457L50.355 69.9884M18.2108 74.7025H28.9792M14.5654 46.279L15.8932 47.6068M17.2209 48.9344L18.5486 50.2622M59.0426 38.1075H57.3808L56.0731 35.0214H53.5681L52.6143 38.1075H50.9525C46.4172 38.1075 42.7405 41.7842 42.7405 46.3195V52.3669C42.7405 56.9023 46.4172 60.5789 50.9525 60.5789C53.1866 60.5789 54.9977 58.7678 54.9977 56.5338C54.9977 58.7678 56.8088 60.5789 59.0428 60.5789C63.5782 60.5789 67.2548 56.9023 67.2548 52.3669V46.3195C67.2545 41.7842 63.5778 38.1075 59.0426 38.1075ZM37.1505 78.7812V77.1194L40.2367 75.8117V73.3067L37.1505 72.3529V70.691C37.1505 66.1556 33.4739 62.479 28.9386 62.479H22.8912C18.3558 62.479 14.6792 66.1556 14.6792 70.691C14.6792 72.9251 16.4903 74.7362 18.7243 74.7362C16.4903 74.7362 14.6792 76.5473 14.6792 78.7813C14.6792 83.3167 18.3558 86.9933 22.8912 86.9933H28.9386C33.474 86.9932 37.1505 83.3166 37.1505 78.7812Z" stroke="#336667" stroke-width="1.87768" stroke-miterlimit="10" stroke-linejoin="bevel"/>
</g>
<defs>
<clipPath id="clip0_1_1148">
<rect width="64" height="64" fill="white" transform="translate(9 29)"/>
</clipPath>
</defs>
</svg>
