<svg width="83" height="137" viewBox="0 0 83 137" fill="none" xmlns="http://www.w3.org/2000/svg">
<path d="M0 41.25C0 18.4683 18.4683 0 41.25 0C64.0317 0 82.5 18.4683 82.5 41.25V68.5424C82.5 91.8431 71.6703 113.82 53.1933 128.016L47.2529 132.58C43.8562 135.19 39.1333 135.204 35.7214 132.614L29.6553 128.009C10.9727 113.829 0 91.7244 0 68.2695V41.25Z" fill="#869B47" fill-opacity="0.3"/>
<g clip-path="url(#clip0_1_1158)">
<path d="M23.3906 73.8906C23.1379 73.8906 22.8955 73.7901 22.7168 73.6114L18.2304 69.125H13.8594C13.6066 69.1249 13.3642 69.0245 13.1855 68.8457L11.2793 66.9395C11.1005 66.7608 11.0001 66.5184 11 66.2656V33.8594C11.0001 33.6066 11.1005 33.3642 11.2793 33.1855L13.1855 31.2793C13.3642 31.1005 13.6066 31.0001 13.8594 31H53.8906C54.1434 31.0001 54.3858 31.1005 54.5645 31.2793L56.4707 33.1855C56.6495 33.3642 56.7499 33.6066 56.75 33.8594V66.2656C56.7499 66.5184 56.6495 66.7608 56.4707 66.9395L54.5645 68.8457C54.3858 69.0245 54.1434 69.1249 53.8906 69.125H24.3438V72.9375C24.3438 73.126 24.288 73.3103 24.1833 73.467C24.0786 73.6238 23.9298 73.746 23.7557 73.8182C23.64 73.8664 23.5159 73.891 23.3906 73.8906ZM14.254 67.2188H18.625C18.8778 67.2188 19.1202 67.3193 19.2989 67.498L22.4375 70.6367V68.1719C22.4375 67.9191 22.5379 67.6767 22.7167 67.4979C22.8954 67.3192 23.1378 67.2188 23.3906 67.2188H53.496L54.8438 65.871V34.254L53.496 32.9062H14.254L12.9062 34.254V65.871L14.254 67.2188Z" fill="#336667"/>
<path d="M69.1406 91.9998H29.1094C28.8566 91.9997 28.6142 91.8993 28.4355 91.7205L26.5293 89.8143C26.3505 89.6356 26.2501 89.3932 26.25 89.1404V70.0779H28.1562V88.7458L29.504 90.0935H68.746L70.0938 88.7458V57.1288L68.746 55.781H66.2812C66.0285 55.781 65.7861 55.6805 65.6074 55.5018L61.5156 51.41V54.8279C61.5156 55.0807 61.4152 55.3231 61.2365 55.5019C61.0577 55.6806 60.8153 55.781 60.5625 55.781H57.7031V53.8748H59.6094V49.1092C59.6094 48.9207 59.6653 48.7365 59.7701 48.5798C59.8748 48.423 60.0236 48.3009 60.1978 48.2288C60.3719 48.1567 60.5635 48.1378 60.7484 48.1746C60.9333 48.2113 61.1031 48.3021 61.2364 48.4353L66.6758 53.8748H69.1406C69.3934 53.8749 69.6358 53.9753 69.8145 54.1541L71.7207 56.0603C71.8995 56.239 71.9999 56.4814 72 56.7342V89.1404C71.9999 89.3932 71.8995 89.6356 71.7207 89.8143L69.8145 91.7205C69.6358 91.8993 69.3934 91.9997 69.1406 91.9998Z" fill="#336667"/>
<path d="M37.6875 78.656C36.9335 78.656 36.1964 78.4324 35.5694 78.0135C34.9425 77.5946 34.4538 76.9992 34.1652 76.3025C33.8767 75.6059 33.8012 74.8393 33.9483 74.0998C34.0954 73.3602 34.4585 72.6809 34.9917 72.1477C35.5249 71.6145 36.2042 71.2514 36.9438 71.1043C37.6833 70.9572 38.4499 71.0327 39.1465 71.3213C39.8432 71.6098 40.4386 72.0985 40.8575 72.7254C41.2764 73.3524 41.5 74.0895 41.5 74.8435C41.5 75.8547 41.0984 76.8244 40.3834 77.5394C39.6684 78.2544 38.6987 78.656 37.6875 78.656ZM37.6875 72.9373C37.3105 72.9373 36.942 73.0491 36.6285 73.2586C36.315 73.468 36.0707 73.7657 35.9264 74.1141C35.7821 74.4624 35.7444 74.8457 35.8179 75.2154C35.8915 75.5852 36.073 75.9249 36.3396 76.1915C36.6062 76.4581 36.9459 76.6396 37.3157 76.7132C37.6854 76.7867 38.0687 76.749 38.417 76.6047C38.7654 76.4604 39.0631 76.2161 39.2725 75.9026C39.482 75.5891 39.5938 75.2206 39.5938 74.8435C39.5938 74.338 39.393 73.8531 39.0355 73.4956C38.678 73.1381 38.1931 72.9373 37.6875 72.9373ZM49.125 78.656C48.371 78.656 47.6339 78.4324 47.0069 78.0135C46.38 77.5946 45.8913 76.9992 45.6028 76.3025C45.3142 75.6059 45.2387 74.8393 45.3858 74.0998C45.5329 73.3602 45.896 72.6809 46.4292 72.1477C46.9624 71.6145 47.6417 71.2514 48.3813 71.1043C49.1208 70.9572 49.8874 71.0327 50.584 71.3213C51.2807 71.6098 51.8761 72.0985 52.295 72.7254C52.7139 73.3524 52.9375 74.0895 52.9375 74.8435C52.9375 75.8547 52.5359 76.8244 51.8209 77.5394C51.1059 78.2544 50.1362 78.656 49.125 78.656ZM49.125 72.9373C48.748 72.9373 48.3795 73.0491 48.066 73.2586C47.7525 73.468 47.5082 73.7657 47.3639 74.1141C47.2196 74.4624 47.1819 74.8457 47.2554 75.2154C47.329 75.5852 47.5105 75.9249 47.7771 76.1915C48.0437 76.4581 48.3834 76.6396 48.7531 76.7132C49.1229 76.7867 49.5062 76.749 49.8545 76.6047C50.2029 76.4604 50.5006 76.2161 50.71 75.9026C50.9195 75.5891 51.0313 75.2206 51.0313 74.8435C51.0313 74.338 50.8305 73.8531 50.473 73.4956C50.1155 73.1381 49.6306 72.9373 49.125 72.9373ZM60.5625 78.656C59.8085 78.656 59.0714 78.4324 58.4444 78.0135C57.8175 77.5946 57.3288 76.9992 57.0403 76.3025C56.7517 75.6059 56.6762 74.8393 56.8233 74.0998C56.9704 73.3602 57.3335 72.6809 57.8667 72.1477C58.3999 71.6145 59.0792 71.2514 59.8188 71.1043C60.5583 70.9572 61.3249 71.0327 62.0215 71.3213C62.7182 71.6098 63.3136 72.0985 63.7325 72.7254C64.1514 73.3524 64.375 74.0895 64.375 74.8435C64.375 75.8547 63.9734 76.8244 63.2584 77.5394C62.5434 78.2544 61.5737 78.656 60.5625 78.656ZM60.5625 72.9373C60.1855 72.9373 59.817 73.0491 59.5035 73.2586C59.19 73.468 58.9457 73.7657 58.8014 74.1141C58.6571 74.4624 58.6194 74.8457 58.6929 75.2154C58.7665 75.5852 58.948 75.9249 59.2146 76.1915C59.4812 76.4581 59.8209 76.6396 60.1907 76.7132C60.5604 76.7867 60.9437 76.749 61.292 76.6047C61.6404 76.4604 61.9381 76.2161 62.1475 75.9026C62.357 75.5891 62.4688 75.2206 62.4688 74.8435C62.4688 74.338 62.268 73.8531 61.9105 73.4956C61.553 73.1381 61.0681 72.9373 60.5625 72.9373ZM31.0157 59.5935C30.7629 59.5935 30.5205 59.493 30.3418 59.3143L22.7168 51.6893C22.5381 51.5105 22.4377 51.2682 22.4377 51.0154C22.4377 50.7627 22.5381 50.5203 22.7168 50.3416L26.5293 46.5291C26.708 46.3504 26.9504 46.25 27.2032 46.25C27.4559 46.25 27.6983 46.3504 27.877 46.5291L31.0157 49.6677L39.8731 40.8103C40.0518 40.6316 40.2942 40.5312 40.5469 40.5312C40.7997 40.5312 41.042 40.6316 41.2208 40.8103L45.0333 44.6228C45.212 44.8015 45.3123 45.0439 45.3123 45.2967C45.3123 45.5494 45.212 45.7918 45.0333 45.9705L31.6895 59.3143C31.5108 59.493 31.2684 59.5935 31.0157 59.5935ZM24.7384 51.0154L31.0157 57.2927L43.0117 45.2967L40.5469 42.8319L31.6895 51.6893C31.5108 51.868 31.2684 51.9683 31.0157 51.9683C30.7629 51.9683 30.5205 51.868 30.3418 51.6893L27.2032 48.5506L24.7384 51.0154Z" fill="#336667"/>
</g>
<defs>
<clipPath id="clip0_1_1158">
<rect width="61" height="61" fill="white" transform="translate(11 31)"/>
</clipPath>
</defs>
</svg>
