<svg width="83" height="137" viewBox="0 0 83 137" fill="none" xmlns="http://www.w3.org/2000/svg">
<path d="M0 41.25C0 18.4683 18.4683 0 41.25 0C64.0317 0 82.5 18.4683 82.5 41.25V68.5424C82.5 91.8431 71.6703 113.82 53.1933 128.016L47.2529 132.58C43.8562 135.19 39.1333 135.204 35.7214 132.614L29.6553 128.009C10.9727 113.829 0 91.7244 0 68.2695V41.25Z" fill="#869B47" fill-opacity="0.3"/>
<path fill-rule="evenodd" clip-rule="evenodd" d="M40.9994 31.68C42.9813 33.5935 42.981 36.8045 40.9996 38.7179C39.0182 36.8047 39.0177 33.5937 40.9994 31.68ZM36.1743 45.7369C35.0605 44.9821 34.2046 43.9812 33.7483 42.9298C36.1443 43.0013 38.7248 44.7475 39.6812 46.9465C38.5361 46.914 37.2883 46.4908 36.1743 45.7369ZM44.7443 44.1407C45.8581 43.3859 47.1056 42.9636 48.2511 42.9294C47.2973 45.1266 44.7136 46.8784 42.3184 46.9464C42.7748 45.8966 43.6304 44.8939 44.7443 44.1407ZM44.7446 53.9132C45.8584 53.1584 47.1064 52.736 48.2514 52.7027C47.2956 54.9024 44.7153 56.649 42.3187 56.7204C42.7751 55.6691 43.6306 54.668 44.7446 53.9132ZM43.0513 71.2449C43.6535 71.4705 44.214 71.7946 44.7099 72.2039C44.8276 72.301 44.9658 72.3701 45.114 72.4063C45.2622 72.4424 45.4167 72.4445 45.5658 72.4124L47.2097 72.0636L48.1333 73.6638L47.0097 74.911C46.9078 75.0241 46.8328 75.1586 46.7901 75.3047C46.7474 75.4508 46.7381 75.6046 46.763 75.7547C46.8678 76.3905 46.8677 77.039 46.7627 77.6747C46.7381 77.825 46.7475 77.9789 46.7903 78.1251C46.833 78.2712 46.9081 78.4059 47.0099 78.5192L48.1336 79.7664L47.21 81.3667L45.5669 81.0181C45.4178 80.9859 45.2633 80.9878 45.1151 81.0238C44.9669 81.0598 44.8287 81.1289 44.711 81.2258C44.2147 81.6355 43.654 81.9601 43.0517 82.1867C42.9089 82.2399 42.78 82.3248 42.6746 82.4349C42.5692 82.5451 42.49 82.6776 42.443 82.8226L41.9244 84.4187H40.0772L39.5585 82.8228C39.5113 82.6776 39.4321 82.5449 39.3266 82.4345C39.2212 82.3241 39.0923 82.2389 38.9495 82.185C38.3474 81.9594 37.7871 81.6353 37.2913 81.226C37.1735 81.1291 37.0353 81.06 36.887 81.0241C36.7387 80.9881 36.5842 80.9861 36.4351 81.0183L34.7916 81.3672L33.8676 79.767L34.9912 78.5198C35.093 78.4066 35.1681 78.2719 35.2109 78.1257C35.2536 77.9795 35.263 77.8256 35.2382 77.6753C35.1332 77.0396 35.1332 76.391 35.2382 75.7553C35.2631 75.6052 35.2539 75.4513 35.2111 75.3052C35.1683 75.1591 35.0932 75.0246 34.9912 74.9116L33.8675 73.6644L34.7914 72.0641L36.4353 72.4129C36.5844 72.4449 36.7389 72.4428 36.8871 72.4066C37.0353 72.3705 37.1735 72.3013 37.2911 72.2042C37.7869 71.7948 38.3473 71.4707 38.9493 71.245C39.092 71.1912 39.2208 71.1061 39.3263 70.9958C39.4317 70.8856 39.511 70.7531 39.5584 70.6082L40.0769 69.0121H41.9241L42.4427 70.608C42.49 70.753 42.5693 70.8854 42.6746 70.9957C42.7799 71.1059 42.9087 71.1911 43.0513 71.2449ZM36.1746 55.5094C35.0608 54.7563 34.2049 53.7536 33.7486 52.703C36.1444 52.7727 38.7269 54.5219 39.6815 56.7204C38.5361 56.6864 37.2886 56.2651 36.1746 55.5094ZM38.393 52.2335C36.4555 50.9206 34.1445 50.3932 32.2112 50.8198C31.9577 50.8756 31.7353 51.0264 31.5898 51.2413C31.4442 51.4561 31.3866 51.7186 31.4289 51.9747C32.0441 55.7019 36.1185 58.8225 39.9856 58.7455L39.9858 66.9826H39.4796C39.2245 66.9821 38.9757 67.0626 38.7693 67.2125C38.5629 67.3625 38.4094 67.5741 38.331 67.8169L37.7727 69.5352C37.289 69.7536 36.8286 70.0203 36.3984 70.3311L34.6292 69.9542C34.3797 69.901 34.1197 69.9282 33.8867 70.0321C33.6537 70.1359 33.4596 70.311 33.3323 70.5321L31.812 73.165C31.6839 73.386 31.6292 73.642 31.6558 73.8961C31.6824 74.1501 31.7889 74.3892 31.96 74.5789L33.1702 75.9218C33.1172 76.4496 33.1172 76.9814 33.1702 77.5093L31.9602 78.854C31.7892 79.043 31.6827 79.2815 31.656 79.535C31.6294 79.7885 31.6839 80.044 31.8119 80.2644L33.3323 82.8981C33.4594 83.1194 33.6536 83.2947 33.8868 83.3985C34.1199 83.5024 34.3801 83.5295 34.6297 83.4759L36.3988 83.0997C36.8291 83.4105 37.2896 83.6771 37.7733 83.8955L38.332 85.6129C38.4104 85.8557 38.5638 86.0674 38.7701 86.2175C38.9765 86.3676 39.2252 86.4483 39.4804 86.448L42.5218 86.4479C43.046 86.4479 43.5074 86.1119 43.6704 85.6127L44.2283 83.8953C44.7124 83.677 45.1732 83.4104 45.6037 83.0994L47.3719 83.4754C47.6214 83.5288 47.8815 83.5016 48.1146 83.3978C48.3477 83.2939 48.5419 83.1188 48.6691 82.8975L50.1896 80.2637C50.3175 80.0429 50.372 79.7872 50.3453 79.5334C50.3186 79.2796 50.2121 79.0409 50.041 78.8515L48.8309 77.5085C48.8844 76.9796 48.8841 76.4496 48.8311 75.9211L50.0412 74.5764C50.2122 74.3871 50.3187 74.1485 50.3453 73.8949C50.372 73.6412 50.3174 73.3857 50.1895 73.165L48.6691 70.5314C48.5416 70.3103 48.3474 70.1354 48.1143 70.0316C47.8812 69.9278 47.6213 69.9005 47.3717 69.9536L45.6027 70.3305C45.1723 70.0198 44.7117 69.7532 44.2279 69.5347L43.6695 67.8166C43.5911 67.5739 43.4377 67.3623 43.2313 67.2123C43.0249 67.0624 42.7763 66.9819 42.5212 66.9823H42.0149L42.0147 58.7452C45.8923 58.8188 49.9568 55.6969 50.571 51.9739C50.6133 51.7178 50.5557 51.4553 50.4101 51.2404C50.2645 51.0255 50.0419 50.8747 49.7884 50.8191C47.8551 50.3926 45.5441 50.92 43.607 52.2331C43.027 52.6257 42.4928 53.0822 42.0146 53.5939L42.0144 48.9728C43.717 48.9728 45.3755 48.4919 46.9629 47.4169C48.9 46.1047 50.2487 44.1548 50.5707 42.2015C50.6586 41.6699 50.3147 41.1612 49.7881 41.0467C47.8543 40.6192 45.5438 41.1476 43.6067 42.4606C43.0267 42.8526 42.4925 43.3086 42.0143 43.8199L42.0141 40.5254C45.5142 37.6373 45.308 32.1474 41.5808 29.5383C41.4103 29.419 41.2073 29.355 40.9993 29.355C40.7912 29.355 40.5882 29.419 40.4178 29.5383C36.6925 32.145 36.4838 37.637 39.9853 40.5255L39.9855 43.82C39.5069 43.3086 38.9727 42.8522 38.393 42.4592C36.456 41.1479 34.1448 40.6197 32.2115 41.0471C31.6849 41.1617 31.3409 41.6703 31.4289 42.2019C32.0444 45.9286 36.12 49.0498 39.9856 48.9728L39.9858 53.5939C39.5073 53.0824 38.9731 52.6261 38.393 52.2335ZM70.3686 50.3761L69.2627 54.1775C69.2411 54.2484 69.1927 54.3081 69.1277 54.3437C69.0627 54.3793 68.9864 54.3881 68.915 54.3681L53.4372 49.8652C53.2913 49.8234 53.2037 49.6635 53.2461 49.5173L54.3517 45.7159C54.3945 45.5695 54.5505 45.487 54.6996 45.5253L70.1775 50.0282C70.3227 50.0714 70.4113 50.2309 70.3686 50.3761ZM64.8126 65.6451L66.2796 55.7146L55.858 52.6829L54.9382 57.699C54.9111 57.8467 54.8516 57.9865 54.7641 58.1084C54.6765 58.2304 54.563 58.3314 54.4318 58.4042L46.6555 62.7076C46.8272 64.2591 47.1744 65.208 47.6898 65.531C48.7588 66.2016 51.8832 64.8212 54.5935 63.7519C55.2527 63.4919 56.0091 63.9742 55.9784 64.7571L56.0188 75.375C56.0189 83.171 50.0477 89.6533 42.3396 90.3339C42.1148 90.6796 42.0162 91.0057 42.0157 91.3624C42.0144 92.4527 43.0245 92.7337 44.0262 92.577C46.2475 92.2307 48.4974 91.5452 50.7136 90.5355C53.8202 89.1233 58.0356 86.7236 60.4745 83.318C63.3865 79.2506 64.8021 73.519 64.802 65.7939C64.8016 65.7441 64.8052 65.6944 64.8126 65.6451ZM39.6213 92.2652C40.1609 91.8073 40.0453 90.9228 39.6625 90.3341C31.9544 89.6539 25.9825 83.1718 25.9823 75.3757L26.0224 64.7579C25.9916 63.9748 26.7479 63.4925 27.4071 63.7525C30.1174 64.8218 33.242 66.2018 34.3109 65.5312C34.8261 65.2081 35.1733 64.2593 35.3448 62.7076L27.5686 58.4047C27.4373 58.3318 27.3238 58.2308 27.2362 58.1089C27.1486 57.9869 27.0891 57.8471 27.062 57.6995L26.1419 52.6833L15.7204 55.7158L17.199 65.7951C17.1991 73.5202 18.6149 79.2517 21.5274 83.319C23.9664 86.7246 28.1814 89.124 31.2883 90.5361C33.5049 91.5456 35.7545 92.2311 37.9756 92.5773C38.6514 92.6833 39.2669 92.5661 39.6213 92.2652ZM12.8722 54.344C12.8399 54.3268 12.8113 54.3034 12.7881 54.275C12.765 54.2467 12.7476 54.2141 12.7372 54.179L11.6312 50.3776C11.5886 50.2321 11.6771 50.0729 11.8223 50.0297L27.3757 45.5158C27.4901 45.5158 27.6111 45.5916 27.6479 45.7184L28.7536 49.518C28.7961 49.6643 28.7085 49.8241 28.5625 49.866L13.085 54.3696C13.0496 54.3797 13.0125 54.3827 12.976 54.3783C12.9395 54.3739 12.9042 54.3622 12.8722 54.344ZM72.1221 49.1871C71.977 48.9207 71.7806 48.6858 71.5441 48.4959C71.3076 48.306 71.0357 48.165 70.7443 48.0809L55.2668 43.578C54.0419 43.2209 52.7589 43.9287 52.4034 45.1501L51.2979 48.9507C50.9419 50.174 51.6476 51.4579 52.8704 51.8135L53.8994 52.1135L53.0286 56.8605L45.0936 61.2519C44.924 61.3458 44.7849 61.4862 44.6927 61.6566C44.6004 61.8271 44.5589 62.0203 44.573 62.2136C44.7736 64.9387 45.402 66.4911 46.6114 67.2502C48.3081 68.3143 50.5857 67.5151 53.9493 66.1892L53.9892 75.3751C53.9894 82.2539 48.6158 87.9498 41.7559 88.3414C41.4417 88.3599 41.1945 88.5067 41.0009 88.7466C40.8067 88.507 40.5585 88.3597 40.2458 88.3414C33.3859 87.9501 28.0115 82.2544 28.0114 75.3757L28.0509 66.1896C31.4148 67.5154 33.6921 68.3146 35.3892 67.2504C36.5986 66.4913 37.2271 64.9389 37.4273 62.2136C37.4414 62.0203 37.3999 61.8271 37.3076 61.6566C37.2153 61.4862 37.0762 61.3458 36.9066 61.2519L28.9713 56.8609L28.1003 52.1141L29.1294 51.8141C30.3522 51.4585 31.0574 50.1746 30.7017 48.9512L29.596 45.1507H29.5957C29.2402 43.9293 27.9575 43.2217 26.733 43.5788L11.2553 48.0824C10.0325 48.4381 9.32654 49.7212 9.68263 50.9445L10.7886 54.7458C11.1484 55.9824 12.4372 56.6676 13.6517 56.3179L13.7535 56.2889L15.1696 65.8698C15.1791 73.9966 16.7193 80.0907 19.8776 84.5006C22.5774 88.2712 27.1161 90.868 30.4479 92.3845C32.8322 93.4683 35.2594 94.2077 37.6626 94.5828C38.8852 94.7723 40.1245 94.5346 41.0008 93.7527C41.8593 94.5337 43.1286 94.7704 44.3386 94.5827C46.7423 94.2074 49.1693 93.4678 51.5532 92.3839C54.8852 90.8673 59.4238 88.2702 62.1235 84.4995C65.2815 80.0894 66.8214 73.9952 66.8306 65.8683L68.2462 56.2874C68.5205 56.3654 68.7038 56.4088 68.9921 56.4088C69.9932 56.4088 70.9175 55.7522 71.211 54.7444L72.3168 50.943C72.4891 50.3522 72.4195 49.728 72.1221 49.1871ZM43.7845 76.715C43.7845 75.1805 42.5355 73.9317 41.0006 73.9317C39.4656 73.9317 38.2167 75.1806 38.2167 76.7151C38.2167 78.2503 39.4656 79.4984 41.0008 79.4984C42.5357 79.4982 43.7845 78.2502 43.7845 76.715ZM36.1875 76.7151C36.1875 79.3684 38.3467 81.5278 41.0008 81.5276C43.6543 81.5276 45.8137 79.3681 45.8137 76.7148C45.8137 74.0615 43.6541 71.9021 41.0006 71.9023C38.3465 71.9023 36.1874 74.0618 36.1875 76.7151Z" fill="#336667"/>
</svg>
