<svg width="48" height="48" viewBox="0 0 48 48" fill="none" xmlns="http://www.w3.org/2000/svg">
<path d="M24 2.46722C26.908 2.46722 29.7277 3.03617 32.3808 4.15835C34.9446 5.24273 37.2476 6.79567 39.2259 8.77401C41.2043 10.7524 42.7572 13.0554 43.8416 15.6192C44.9638 18.2723 45.5327 21.0919 45.5327 23.9999C45.5327 26.9079 44.9638 29.7276 43.8416 32.3807C42.7572 34.9445 41.2043 37.2476 39.2259 39.2259C37.2476 41.2042 34.9445 42.7571 32.3808 43.8415C29.7277 44.9637 26.9079 45.5327 24 45.5327C21.092 45.5327 18.2723 44.9637 15.6192 43.8415C13.0554 42.7571 10.7524 41.2042 8.77407 39.2259C6.79573 37.2475 5.24279 34.9445 4.1584 32.3807C3.03623 29.7276 2.46728 26.9079 2.46728 23.9999C2.46728 21.0919 3.03628 18.2722 4.1584 15.6192C5.24279 13.0554 6.79573 10.7523 8.77407 8.77401C10.7524 6.79567 13.0555 5.24273 15.6192 4.15835C18.2723 3.03623 21.0921 2.46722 24 2.46722ZM24 0C10.7451 0 0 10.7451 0 24C0 37.2549 10.7452 48 24 48C37.2548 48 48 37.2548 48 24C48 10.7452 37.2549 0 24 0Z" fill="#96B908"/>
<path d="M34.5462 29.0544C34.5439 28.9842 34.4877 28.9261 34.4164 28.9231C34.3412 28.9198 34.2775 28.9791 34.2753 29.0544C34.2357 30.034 34.0541 30.9983 33.734 31.9176L33.6796 32.0607L33.571 32.3464C33.5157 32.4699 33.4477 32.6335 33.3877 32.7661C33.3252 32.9042 33.2553 33.0413 33.1848 33.1757C32.2756 34.9082 30.8159 36.3539 29.0694 37.2313C28.3382 37.6214 27.5044 37.8952 26.6917 38.0463C26.2122 38.1355 25.7291 38.191 25.2422 38.2123C22.5112 38.3394 19.7732 37.1092 18.0114 35.0305C17.4927 34.4185 17.0656 33.7322 16.7305 33.004C15.9611 31.3317 15.7543 29.4108 16.1378 27.6141C16.3514 26.5992 16.757 25.6302 17.3208 24.7656C20.1799 26.7541 23.9792 26.7281 26.4797 25.477C29.4317 23.9994 31.5483 20.9675 31.9176 17.6871C32.2869 14.407 30.8975 10.9803 28.348 8.88329C28.0376 8.62822 27.6788 8.3806 27.2774 8.38887C26.6256 8.40221 26.2018 9.04395 25.7794 9.54029C24.6554 10.8616 22.9142 11.4623 21.2366 11.9034C19.5591 12.3447 17.8026 12.7074 16.3948 13.7211C15.1047 14.6501 14.204 16.1035 13.9458 17.6723C13.7888 18.6246 13.8701 19.6126 14.165 20.5312C14.2801 20.8902 14.7521 20.9717 14.9802 20.6715C15.6288 19.8186 16.4395 19.0795 17.3196 18.4633C18.7662 17.4502 20.4019 16.7428 22.0462 16.0993C22.9448 15.7477 23.8855 15.4061 24.7529 15.0211C24.9514 14.9331 25.1077 15.2074 24.9305 15.3328C24.0128 15.9822 23.038 16.5404 22.0345 17.0972C20.4304 17.9874 18.8052 18.8779 17.432 20.1083C17.3499 20.1819 17.2666 20.2594 17.1827 20.34C13.0852 24.0215 12.1923 30.2443 15.3365 34.8745C15.4839 35.0994 15.6859 35.3598 15.8496 35.5731C15.9088 35.6462 16.1265 35.8996 16.1839 35.9702C16.2711 36.0634 16.4466 36.2566 16.5361 36.3504C17.5339 37.3966 18.7886 38.2498 20.1273 38.7924C20.6296 38.996 21.1379 39.1572 21.6608 39.2974C21.7567 39.3201 21.8943 39.3583 21.9909 39.3744C22.0545 39.3857 22.3481 39.4461 22.4063 39.4557C22.5271 39.475 22.703 39.4988 22.8247 39.5168C23.6346 39.6356 24.4695 39.6385 25.2823 39.5497C25.9124 39.4809 26.5301 39.3554 27.1414 39.1903C27.325 39.133 27.5945 39.0517 27.774 38.9826C27.9222 38.9231 28.0948 38.8693 28.2384 38.8021C28.282 38.7814 28.5859 38.6539 28.6185 38.6363C28.6688 38.6105 28.7887 38.5537 28.8415 38.5263C28.8859 38.5054 29.0232 38.4351 29.064 38.4161C29.1605 38.363 29.4012 38.2281 29.4975 38.175C29.6264 38.0957 29.7894 37.9936 29.9181 37.9138C32.8964 35.9595 34.6714 32.6197 34.5462 29.0544Z" fill="#96B908"/>
</svg>
