<svg width="695" height="517" viewBox="0 0 695 517" fill="none" xmlns="http://www.w3.org/2000/svg">
<g filter="url(#filter0_f_74_1067)">
<path fill-rule="evenodd" clip-rule="evenodd" d="M247.289 383.179C244.493 384.485 242.004 386.392 240.933 384.329C238.955 380.5 235.788 366.031 232.952 363.525C218.821 351.031 203.804 334.231 199.247 328.01C193.337 319.949 187.237 300.248 180.788 294.19C169.492 283.588 140.633 263.094 127.453 251.201C117.97 242.646 110.663 229.09 101.698 222.836C93.6285 217.212 73.6538 213.68 73.6538 213.68C73.6538 213.68 95.95 214.949 101.697 218.211C107.447 221.477 124.28 243.507 129.872 247.237C135.465 250.971 178.752 286.412 183.985 289.287C189.218 292.161 198.082 314.133 201.134 319.742C204.189 325.35 229.096 354.932 234.841 357.959C240.586 360.986 247.289 383.179 247.289 383.179Z" fill="#6F8726"/>
<path fill-rule="evenodd" clip-rule="evenodd" d="M239.749 366.235C239.749 366.235 239.841 362.02 240.516 359.537C241.289 356.689 248.889 338.818 253.955 331.994C257.239 327.576 273.404 311.38 273.063 311.187C272.727 310.992 258.427 322.676 251.915 330.828C249.711 333.586 240.373 351.996 236.386 357.211C235.562 358.292 233.733 358.028 232.127 357.5" fill="#6F8726"/>
<path fill-rule="evenodd" clip-rule="evenodd" d="M272.074 311.83C272.074 311.83 274.05 294.266 290.474 295.513C290.474 295.513 289.303 313.087 272.074 311.83Z" fill="#679707"/>
<path d="M287.401 297.913C287.39 298.026 286.544 298.582 286.454 298.658C285.522 299.438 284.63 300.261 283.732 301.071C280.498 303.99 277.24 306.882 273.928 309.704" stroke="#436810" stroke-miterlimit="10" stroke-linecap="round" stroke-linejoin="round"/>
<path fill-rule="evenodd" clip-rule="evenodd" d="M267.354 315.545C267.354 315.545 276.293 306.649 267.779 294.764C267.779 294.764 256.233 301.442 267.354 315.545Z" fill="#679707"/>
<path d="M266.965 298.269C266.303 299.307 266.368 301.121 266.253 302.3C265.895 306.149 265.883 310.275 266.746 314.073" stroke="#436810" stroke-miterlimit="10" stroke-linecap="round" stroke-linejoin="round"/>
<path fill-rule="evenodd" clip-rule="evenodd" d="M241.448 347.855C241.448 347.855 244.03 331.233 225.503 325.188C225.503 325.188 218.368 341.497 241.448 347.855Z" fill="#679707"/>
<path d="M227.394 329.606C227.504 331.241 229 333.141 229.812 334.495C232.465 338.917 235.711 343.355 239.632 346.754" stroke="#436810" stroke-miterlimit="10" stroke-linecap="round" stroke-linejoin="round"/>
<path fill-rule="evenodd" clip-rule="evenodd" d="M265.238 319.166C265.238 319.166 274.149 309.235 285.118 319.404C285.118 319.404 277.26 327.871 265.238 319.166Z" fill="#679707"/>
<path d="M265.508 318.835C265.457 318.881 269.033 318.928 269.75 318.922C273.009 318.898 276.289 318.719 279.535 318.412" stroke="#436810" stroke-miterlimit="10" stroke-linecap="round" stroke-linejoin="round"/>
<path fill-rule="evenodd" clip-rule="evenodd" d="M241.367 356.416C241.367 356.416 250.281 346.484 261.247 356.654C261.247 356.654 253.39 365.125 241.367 356.416Z" fill="#679707"/>
<path d="M241.641 356.084C241.591 356.134 245.166 356.176 245.885 356.175C249.143 356.147 252.423 355.968 255.665 355.667" stroke="#436810" stroke-miterlimit="10" stroke-linecap="round" stroke-linejoin="round"/>
<path fill-rule="evenodd" clip-rule="evenodd" d="M258.506 324.806C258.506 324.806 261.417 311.895 250.057 306.166C250.057 306.166 243.268 318.944 258.506 324.806Z" fill="#679707"/>
<path d="M258.831 324.694C258.681 324.731 258.294 324.238 258.225 324.163C257.631 323.551 257.126 322.857 256.64 322.161C254.662 319.338 253.026 316.283 251.729 313.087" stroke="#436810" stroke-miterlimit="10" stroke-linecap="round" stroke-linejoin="round"/>
<path fill-rule="evenodd" clip-rule="evenodd" d="M255.299 330.099C255.299 330.099 267.347 323.151 273.653 334.369C273.653 334.369 264.321 343.089 255.299 330.099Z" fill="#679707"/>
<path d="M255.389 329.866C255.291 329.856 256.675 330.232 256.93 330.286C258.064 330.534 259.201 330.772 260.339 331.015C263.614 331.718 266.971 332.27 270.171 333.282" stroke="#436810" stroke-miterlimit="10" stroke-linecap="round" stroke-linejoin="round"/>
<path fill-rule="evenodd" clip-rule="evenodd" d="M250.315 334.787C250.315 334.787 251.059 319.175 235.657 317.54C235.657 317.54 236.512 333.802 250.315 334.787Z" fill="#679707"/>
<path d="M250.223 334.491C250.271 334.643 249.96 334.315 249.835 334.213C249.558 333.997 249.289 333.767 249.02 333.536C248.304 332.915 247.602 332.272 246.932 331.596C244.757 329.396 242.737 327.014 240.803 324.596" stroke="#436810" stroke-miterlimit="10" stroke-linecap="round" stroke-linejoin="round"/>
<path fill-rule="evenodd" clip-rule="evenodd" d="M249.465 339.379C249.465 339.379 259.876 330.617 268.552 345.024C268.552 345.024 257.678 351.792 249.465 339.379Z" fill="#679707"/>
<path d="M249.786 339.198C249.784 339.309 250.554 339.39 250.608 339.403C251.455 339.576 252.298 339.786 253.135 340.002C256.879 340.985 260.636 342.021 264.184 343.586" stroke="#436810" stroke-miterlimit="10" stroke-linecap="round" stroke-linejoin="round"/>
<path fill-rule="evenodd" clip-rule="evenodd" d="M203.535 332.547C203.535 332.547 200.879 328.841 196.123 327.274C193.125 326.284 173.41 320.854 164.551 320.553C158.81 320.361 123.293 328.185 123.263 327.752C123.229 327.325 153.478 318.011 164.351 317.966C168.026 317.952 189.748 322.561 196.594 322.693C198.014 322.721 198.92 320.922 199.464 319.137" fill="#6F8726"/>
<path fill-rule="evenodd" clip-rule="evenodd" d="M123.829 327.753C123.829 327.753 114.815 318.063 100.951 331.713C100.951 331.713 109.194 339.173 123.829 327.753Z" fill="#679707"/>
<path d="M104.41 331.316C105.979 331.472 108.038 330.66 109.555 330.37C113.494 329.624 117.416 328.794 121.357 328.061" stroke="#436810" stroke-miterlimit="10" stroke-linecap="round" stroke-linejoin="round"/>
<path fill-rule="evenodd" clip-rule="evenodd" d="M129.392 325.972C129.392 325.972 117.03 326.575 110.229 314.532C110.229 314.532 124.424 313.852 129.392 325.972Z" fill="#679707"/>
<path d="M113.631 316.719C118.096 319.48 122.669 322.032 127.016 325" stroke="#436810" stroke-miterlimit="10" stroke-linecap="round" stroke-linejoin="round"/>
<path fill-rule="evenodd" clip-rule="evenodd" d="M136.624 325.289C136.624 325.289 117.616 331.943 125.711 348.677C125.711 348.677 141.348 342.132 136.624 325.289Z" fill="#679707"/>
<path d="M127.296 343.186C127.212 343.353 127.452 342.839 127.54 342.674C127.765 342.253 127.99 341.829 128.21 341.404C128.879 340.089 129.544 338.774 130.224 337.465C132.32 333.445 135.031 329.504 136.654 325.251" stroke="#436810" stroke-miterlimit="10" stroke-linecap="round" stroke-linejoin="round"/>
<path fill-rule="evenodd" clip-rule="evenodd" d="M145.608 321.92C145.608 321.92 126.448 320.463 128.137 299.665C128.137 299.665 147.857 303.483 145.608 321.92Z" fill="#679707"/>
<path d="M131.222 303.613C136.005 309.168 140.98 314.398 144.922 320.62" stroke="#436810" stroke-miterlimit="10" stroke-linecap="round" stroke-linejoin="round"/>
<path fill-rule="evenodd" clip-rule="evenodd" d="M162.82 318.827C162.82 318.827 144.703 311.995 148.868 290.435C148.868 290.435 166.527 290.921 162.82 318.827Z" fill="#679707"/>
<path d="M150.672 292.775C150.701 293.37 151.72 294.427 152.02 294.897C153.102 296.579 154.109 298.309 155.099 300.04C158.064 305.219 160.652 310.718 162.039 316.539" stroke="#436810" stroke-miterlimit="10" stroke-linecap="round" stroke-linejoin="round"/>
<path fill-rule="evenodd" clip-rule="evenodd" d="M155.567 320.889C155.567 320.889 139.023 328.633 148.889 348.507C148.889 348.507 167.87 343.255 155.567 320.889Z" fill="#679707"/>
<path d="M150.453 343.42C150.364 343.639 150.67 343.005 150.773 342.797C151.017 342.304 151.206 341.789 151.399 341.273C151.97 339.75 152.579 338.241 153.13 336.709C154.774 332.12 156.139 327.053 155.522 322.138" stroke="#436810" stroke-miterlimit="10" stroke-linecap="round" stroke-linejoin="round"/>
<path fill-rule="evenodd" clip-rule="evenodd" d="M188.898 294.766C188.898 294.766 187.769 290.703 187.701 288.134C187.624 285.183 189.756 265.875 192.643 257.882C194.512 252.702 205.329 232.533 204.948 232.443C204.568 232.358 194.241 247.666 190.354 257.349C189.036 260.628 185.395 280.949 183.08 287.093C182.601 288.365 180.772 288.639 179.086 288.597" fill="#6F8726"/>
<path fill-rule="evenodd" clip-rule="evenodd" d="M202.922 235.88C202.922 235.88 193.778 218.909 215.241 210.808C215.241 210.808 222.884 227.547 202.922 235.88Z" fill="#679707"/>
<path d="M212.817 215.118C212.794 215.367 211.934 216.157 211.792 216.354C210.834 217.66 209.882 218.968 209.005 220.329C206.161 224.737 203.012 230.066 202.669 235.443" stroke="#436810" stroke-miterlimit="10" stroke-linecap="round" stroke-linejoin="round"/>
<path fill-rule="evenodd" clip-rule="evenodd" d="M196.827 247.061C196.827 247.061 202.368 236.808 188.058 221.185C188.058 221.185 178.956 234.851 196.827 247.061Z" fill="#679707"/>
<path d="M189.554 226.658C191.342 232.534 193.389 238.268 195.788 243.936" stroke="#436810" stroke-miterlimit="10" stroke-linecap="round" stroke-linejoin="round"/>
<path fill-rule="evenodd" clip-rule="evenodd" d="M201.284 241.675C201.284 241.675 208.399 229.651 222.806 237.145C222.806 237.145 217.583 251.335 201.284 241.675Z" fill="#679707"/>
<path d="M218.547 238.905C218.486 238.801 217.635 238.906 217.557 238.911C216.643 238.949 215.73 239.001 214.82 239.107C210.845 239.583 206.998 240.524 203.14 241.546" stroke="#436810" stroke-miterlimit="10" stroke-linecap="round" stroke-linejoin="round"/>
<path fill-rule="evenodd" clip-rule="evenodd" d="M189.571 274.889C189.571 274.889 196.687 262.869 211.094 270.363C211.094 270.363 205.871 284.553 189.571 274.889Z" fill="#679707"/>
<path d="M206.835 272.123C206.773 272.015 205.923 272.124 205.845 272.126C204.93 272.164 204.019 272.221 203.108 272.327C199.132 272.798 195.287 273.739 191.427 274.761" stroke="#436810" stroke-miterlimit="10" stroke-linecap="round" stroke-linejoin="round"/>
<path fill-rule="evenodd" clip-rule="evenodd" d="M191.75 256.935C191.75 256.935 193.856 241.661 175.332 234.103C175.332 234.103 173.911 248.963 191.75 256.935Z" fill="#679707"/>
<path d="M179.63 238.747C179.566 238.993 180.139 239.813 180.26 240.035C180.874 241.141 181.541 242.22 182.189 243.305C184.604 247.343 186.932 251.801 190.137 255.289" stroke="#436810" stroke-miterlimit="10" stroke-linecap="round" stroke-linejoin="round"/>
<path fill-rule="evenodd" clip-rule="evenodd" d="M187.695 270.529C187.695 270.529 186.083 255.185 166.289 252.297C166.289 252.297 168.469 267.06 187.695 270.529Z" fill="#679707"/>
<path d="M171.569 255.768C171.567 256.026 172.318 256.683 172.491 256.867C173.353 257.798 174.257 258.683 175.149 259.581C178.461 262.923 181.783 266.693 185.733 269.312" stroke="#436810" stroke-miterlimit="10" stroke-linecap="round" stroke-linejoin="round"/>
<path fill-rule="evenodd" clip-rule="evenodd" d="M190.269 262.532C190.269 262.532 199.539 244.983 217.244 251.934C217.244 251.934 210.69 267.556 190.269 262.532Z" fill="#679707"/>
<path d="M213.883 252.737C214.011 252.907 213.497 252.935 213.302 253.031C212.849 253.246 212.398 253.469 211.952 253.691C210.604 254.365 209.257 255.043 207.907 255.707C203.705 257.79 199.364 260.119 194.832 261.437C193.583 261.802 192.282 261.719 191.014 261.986" stroke="#436810" stroke-miterlimit="10" stroke-linecap="round" stroke-linejoin="round"/>
<path fill-rule="evenodd" clip-rule="evenodd" d="M122.947 165.392C122.947 165.392 116.114 142.19 135.719 137.734C135.719 137.734 143.78 157.467 122.947 165.392Z" fill="#679707"/>
<path d="M134.318 140.543C128.575 147.245 124.815 156.503 122.956 165.071" stroke="#436810" stroke-miterlimit="10" stroke-linecap="round" stroke-linejoin="round"/>
<path fill-rule="evenodd" clip-rule="evenodd" d="M111.243 189.473C111.243 189.473 123.985 175.485 138.218 186.826C138.218 186.826 129.504 198.634 111.243 189.473Z" fill="#679707"/>
<path d="M134.666 186.788C134.269 186.54 133.391 186.77 132.975 186.811C131.482 186.962 129.998 187.131 128.508 187.297C123.268 187.887 118.004 188.369 112.787 189.153" stroke="#436810" stroke-miterlimit="10" stroke-linecap="round" stroke-linejoin="round"/>
<path fill-rule="evenodd" clip-rule="evenodd" d="M108.528 224.847C108.528 224.847 107.4 220.785 107.33 218.211C107.253 215.26 109.123 196.221 112.01 188.23C113.882 183.049 124.891 162.476 124.579 162.526C124.261 162.577 114.008 178.839 110.116 188.523C108.801 191.799 106.485 211.374 104.172 217.519C103.693 218.795 103.015 220.287 101.431 219.995" fill="#6F8726"/>
<path fill-rule="evenodd" clip-rule="evenodd" d="M119.598 171.593C119.598 171.593 126.601 161.572 111.984 146.588C111.984 146.588 103.759 161.441 119.598 171.593Z" fill="#679707"/>
<path d="M112.773 150.807C112.587 150.746 112.82 151.2 112.856 151.391C112.961 151.906 113.072 152.415 113.187 152.929C113.536 154.51 113.911 156.086 114.348 157.649C115.674 162.344 117.522 166.657 119.73 170.988" stroke="#436810" stroke-miterlimit="10" stroke-linecap="round" stroke-linejoin="round"/>
<path fill-rule="evenodd" clip-rule="evenodd" d="M117.221 175.347C117.221 175.347 132.958 157.415 145.977 167.301C145.977 167.301 135.846 186.368 117.221 175.347Z" fill="#679707"/>
<path d="M141.064 168.083C140.532 167.971 139.622 168.428 139.128 168.572C137.601 169.003 136.081 169.446 134.559 169.884C128.893 171.536 123.331 173.842 117.597 175.212" stroke="#436810" stroke-miterlimit="10" stroke-linecap="round" stroke-linejoin="round"/>
<path fill-rule="evenodd" clip-rule="evenodd" d="M113.413 183.392C113.413 183.392 116.52 167.059 99.6564 158.81C99.6564 158.81 94.1893 177.045 113.413 183.392Z" fill="#679707"/>
<path d="M102.878 164.023C102.872 164.015 103.459 165.938 103.612 166.283C104.172 167.566 104.773 168.827 105.377 170.082C107.411 174.321 109.498 179.438 112.719 182.937" stroke="#436810" stroke-miterlimit="10" stroke-linecap="round" stroke-linejoin="round"/>
<path fill-rule="evenodd" clip-rule="evenodd" d="M109.021 195.71C109.021 195.71 107.32 178.423 92.8882 178.267C92.8882 178.267 91.8131 191.723 109.021 195.71Z" fill="#679707"/>
<path d="M96.0083 182.596C95.8944 182.479 96.333 183.046 96.3458 183.067C96.6205 183.398 96.9062 183.717 97.1964 184.037C98.1132 185.041 99.0662 186.014 100.015 186.988C102.857 189.893 105.745 192.818 108.945 195.328" stroke="#436810" stroke-miterlimit="10" stroke-linecap="round" stroke-linejoin="round"/>
<path fill-rule="evenodd" clip-rule="evenodd" d="M105.705 209.921C105.705 209.921 101.271 193.125 87.0019 195.275C87.0019 195.275 88.0817 208.728 105.705 209.921Z" fill="#679707"/>
<path d="M91.0657 198.256C91.0364 198.1 91.2495 198.521 91.3625 198.634C91.6238 198.893 91.8954 199.138 92.1754 199.38C93.1576 200.237 94.1601 201.062 95.1682 201.888C98.1993 204.375 101.333 206.75 104.575 208.967" stroke="#436810" stroke-miterlimit="10" stroke-linecap="round" stroke-linejoin="round"/>
<path fill-rule="evenodd" clip-rule="evenodd" d="M108.698 200.922C108.698 200.922 121.105 190.618 133.028 200.069C133.028 200.069 122.235 211.998 108.698 200.922Z" fill="#679707"/>
<path d="M128.614 200.181C128.781 200.283 128.229 200.239 128.034 200.281C127.573 200.377 127.109 200.464 126.645 200.543C125.196 200.779 123.744 200.969 122.287 201.142C118.426 201.592 113.954 202.286 110.106 201.336" stroke="#436810" stroke-miterlimit="10" stroke-linecap="round" stroke-linejoin="round"/>
<path fill-rule="evenodd" clip-rule="evenodd" d="M104.251 223.55C98.6102 222.717 75.7789 230.482 62.865 231.455C50.2456 232.406 30.3313 227.092 30.4068 226.829C30.4822 226.566 52.5675 231.567 63.3067 229.882C72.0674 228.51 88.9753 225.051 96.5834 221.839C98.1281 221.184 98.5851 221.208 97.9567 219.662" fill="#6F8726"/>
<path fill-rule="evenodd" clip-rule="evenodd" d="M8.79123 209.979C8.79123 209.979 32.8375 207.547 33.6036 227.653C33.6036 227.653 12.7341 231.931 8.79123 209.979Z" fill="#679707"/>
<path d="M12.0526 212.616C11.7938 212.539 12.4094 213.019 12.5979 213.209C13.0047 213.607 13.4451 213.967 13.8936 214.317C15.3672 215.464 16.8912 216.556 18.4056 217.65C23.0289 220.981 28.0542 223.563 32.7669 226.711" stroke="#436810" stroke-miterlimit="10" stroke-linecap="round" stroke-linejoin="round"/>
<path fill-rule="evenodd" clip-rule="evenodd" d="M42.809 229.014C42.809 229.014 26.8527 219.676 33.4967 202.018C33.4967 202.018 48.0192 215.19 42.809 229.014Z" fill="#679707"/>
<path d="M34.0747 206.627C33.9628 208.677 35.1628 211.232 35.7755 213.118C37.4554 218.294 39.5856 223.294 42.4601 227.917" stroke="#436810" stroke-miterlimit="10" stroke-linecap="round" stroke-linejoin="round"/>
<path fill-rule="evenodd" clip-rule="evenodd" d="M37.4914 228.064C37.4914 228.064 22.462 228.845 18.0215 246.071C18.0215 246.071 37.1172 243.14 37.4914 228.064Z" fill="#679707"/>
<path d="M22.6516 241.334C22.654 241.347 23.1195 240.929 23.1382 240.911C23.5075 240.569 23.8922 240.239 24.2673 239.905C25.2225 239.056 26.1847 238.216 27.1467 237.379C30.3348 234.608 33.9124 232.019 36.8113 228.934" stroke="#436810" stroke-miterlimit="10" stroke-linecap="round" stroke-linejoin="round"/>
<path fill-rule="evenodd" clip-rule="evenodd" d="M55.4045 229.746C55.4045 229.746 41.0814 223.016 45.5225 204.794C45.5225 204.794 58.9757 208.202 55.4045 229.746Z" fill="#679707"/>
<path d="M47.2364 209.098C47.1818 209.519 47.7855 210.3 47.9543 210.632C48.6181 211.955 49.2484 213.294 49.8605 214.636C51.8304 218.955 53.917 223.359 55.2567 227.926" stroke="#436810" stroke-miterlimit="10" stroke-linecap="round" stroke-linejoin="round"/>
<path fill-rule="evenodd" clip-rule="evenodd" d="M50.4933 230.127C50.4933 230.127 34.4885 229.446 32.5574 251.359C32.5574 251.359 52.3571 246.903 50.4933 230.127Z" fill="#679707"/>
<path d="M34.6566 247.892C34.8064 247.536 36.0703 246.783 36.3608 246.492C37.6028 245.258 38.81 243.979 40.0015 242.694C43.6124 238.813 46.9303 234.698 50.3383 230.644" stroke="#436810" stroke-miterlimit="10" stroke-linecap="round" stroke-linejoin="round"/>
<path fill-rule="evenodd" clip-rule="evenodd" d="M68.2018 229.205C68.2018 229.205 52.8546 219.408 65.1258 203.415C65.1258 203.415 78.6922 218.265 68.2018 229.205Z" fill="#679707"/>
<path d="M65.1437 206.372C65.0834 206.392 65.3554 207.596 65.362 207.655C65.5976 209.054 65.7481 210.464 65.9295 211.869C66.6747 217.567 67.9318 223.311 68.36 229.041" stroke="#436810" stroke-miterlimit="10" stroke-linecap="round" stroke-linejoin="round"/>
<path fill-rule="evenodd" clip-rule="evenodd" d="M62.6368 230.096C62.6368 230.096 50.7034 234.962 57.2724 255.657C57.2724 255.657 73.3811 242.346 62.6368 230.096Z" fill="#679707"/>
<path d="M58.062 250.745C58.9759 249.06 59.3022 246.975 59.7718 245.139C60.9049 240.752 61.7645 236.31 62.3 231.81" stroke="#436810" stroke-miterlimit="10" stroke-linecap="round" stroke-linejoin="round"/>
<path fill-rule="evenodd" clip-rule="evenodd" d="M78.7298 228.477C78.7298 228.477 62.3611 230.664 72.6445 251.044C72.6445 251.044 87.9945 240.9 78.7298 228.477Z" fill="#679707"/>
<path d="M73.5247 248.715C73.4125 248.413 73.7476 247.696 73.8151 247.42C74.1376 246.095 74.4697 244.774 74.786 243.446C75.9567 238.601 77.1994 233.768 78.2782 228.899" stroke="#436810" stroke-miterlimit="10" stroke-linecap="round" stroke-linejoin="round"/>
<path fill-rule="evenodd" clip-rule="evenodd" d="M130.545 252.565C130.545 252.565 126.608 250.262 121.63 250.77C118.488 251.093 98.277 254.169 90.0669 257.509C84.7415 259.673 64.3921 271.832 64.2617 271.557C64.1314 271.282 79.3839 260.327 89.2945 255.856C92.6459 254.339 113.89 249.068 120.194 246.396C121.5 245.841 121.596 243.831 121.368 241.978" fill="#6F8726"/>
<path fill-rule="evenodd" clip-rule="evenodd" d="M66.3244 270.081C66.3244 270.081 64.9573 286.299 48.0049 288.881C48.0049 288.881 48.9875 268.811 66.3244 270.081Z" fill="#679707"/>
<path d="M50.7308 285.592C52.2253 283.249 54.2628 281.169 56.1002 279.107C58.9887 275.866 61.9904 272.622 65.6627 270.266" stroke="#436810" stroke-miterlimit="10" stroke-linecap="round" stroke-linejoin="round"/>
<path fill-rule="evenodd" clip-rule="evenodd" d="M75.8314 264.053C75.8314 264.053 84.7678 277.276 71.7148 288.975C71.7148 288.975 60.0476 273.02 75.8314 264.053Z" fill="#679707"/>
<path d="M72.3202 284.236C72.5486 283.786 72.4267 282.745 72.4688 282.257C72.59 280.768 72.7426 279.282 72.9335 277.798C73.5139 273.266 74.1872 268.546 76.1233 264.359" stroke="#436810" stroke-miterlimit="10" stroke-linecap="round" stroke-linejoin="round"/>
<path fill-rule="evenodd" clip-rule="evenodd" d="M87.8728 257.858C87.8728 257.858 99.2169 269.129 88.4761 283.122C88.4761 283.122 73.9054 269.687 87.8728 257.858Z" fill="#679707"/>
<path d="M87.8234 278.402C86.7331 271.852 87.2714 264.893 87.8268 258.318" stroke="#436810" stroke-miterlimit="10" stroke-linecap="round" stroke-linejoin="round"/>
<path fill-rule="evenodd" clip-rule="evenodd" d="M106.208 252.28C106.208 252.28 114.037 266.228 99.8766 276.746C99.8766 276.746 89.5353 259.832 106.208 252.28Z" fill="#679707"/>
<path d="M100.774 271.358C100.687 271.185 101.096 270.444 101.165 270.274C101.672 269.048 102.121 267.811 102.523 266.546C103.893 262.24 105.017 257.905 105.889 253.476" stroke="#436810" stroke-miterlimit="10" stroke-linecap="round" stroke-linejoin="round"/>
<path fill-rule="evenodd" clip-rule="evenodd" d="M95.8926 255.039C95.8926 255.039 80.007 256.83 75.8267 239.687C75.8267 239.687 95.4145 236.733 95.8926 255.039Z" fill="#679707"/>
<path d="M82.3862 243.908C87.3788 246.556 92.5615 250.174 95.9649 254.74" stroke="#436810" stroke-miterlimit="10" stroke-linecap="round" stroke-linejoin="round"/>
<path fill-rule="evenodd" clip-rule="evenodd" d="M109.738 250.27C109.738 250.27 93.7506 250.346 91.4304 232.849C91.4304 232.849 111.224 232.018 109.738 250.27Z" fill="#679707"/>
<path d="M95.6729 236.537C100.788 240.523 105.904 244.687 109.743 249.979" stroke="#436810" stroke-miterlimit="10" stroke-linecap="round" stroke-linejoin="round"/>
<path fill-rule="evenodd" clip-rule="evenodd" d="M83.8955 260.525C83.8955 260.525 76.9813 248.426 63.5873 251.943C63.5873 251.943 70.6799 265.014 83.8955 260.525Z" fill="#679707"/>
<path d="M67.3153 253.532C67.2835 253.534 67.7228 253.788 67.7743 253.815C68.1494 253.997 68.5282 254.171 68.9052 254.34C69.9579 254.815 71.0134 255.28 72.0741 255.727C75.6169 257.214 79.2039 258.641 82.664 260.3" stroke="#436810" stroke-miterlimit="10" stroke-linecap="round" stroke-linejoin="round"/>
<path fill-rule="evenodd" clip-rule="evenodd" d="M73.2038 265.641C73.2038 265.641 60.8246 253.155 45.2583 262.126C45.2583 262.126 58.1638 275.745 73.2038 265.641Z" fill="#679707"/>
<path d="M49.8774 262.843C49.6258 262.728 50.4293 262.813 50.7072 262.82C51.3097 262.836 51.9136 262.865 52.5185 262.894C54.1379 262.977 55.7529 263.084 57.3709 263.235C62.72 263.741 68.2508 264.378 73.4463 265.83" stroke="#436810" stroke-miterlimit="10" stroke-linecap="round" stroke-linejoin="round"/>
<path fill-rule="evenodd" clip-rule="evenodd" d="M202.321 331C194.449 329.969 186.956 326.962 174.718 336.104C160.916 346.418 163.296 364.766 163.062 364.576C162.832 364.383 157.425 348.098 173.336 334.958C181.831 327.94 191.41 328.193 199.199 327.364" fill="#6F8726"/>
<path fill-rule="evenodd" clip-rule="evenodd" d="M163.007 361.243C163.007 361.243 160.99 359.615 159.411 361.851C157.832 364.085 155.444 366.213 154.589 364.391C154.589 364.391 154.932 367.319 157.212 366.447C159.49 365.579 163.007 361.243 163.007 361.243Z" fill="#334428"/>
<path fill-rule="evenodd" clip-rule="evenodd" d="M164.208 361.117C164.208 361.117 166.619 359.109 168.442 360.499C170.27 361.885 172.042 365.84 174.095 365.214C174.095 365.214 171.109 367.547 168.889 365.715C166.673 363.882 164.208 361.117 164.208 361.117Z" fill="#334428"/>
<path fill-rule="evenodd" clip-rule="evenodd" d="M157.069 378.422C154.982 369.786 160.074 361.333 160.074 361.333C160.074 361.333 172.754 365.698 173.343 373.947C173.933 382.197 170.619 384.057 173.282 388.264C173.904 389.245 159.691 389.268 157.069 378.422Z" fill="#679707"/>
<path fill-rule="evenodd" clip-rule="evenodd" d="M168.03 388.225C163.886 387.285 158.576 384.641 157.069 378.422C154.982 369.786 160.074 361.333 160.074 361.333C160.074 361.333 166.451 363.527 170.37 367.747C167.945 366.889 164.281 365.979 162.594 367.523C160.117 369.792 156.018 381.631 168.03 388.225Z" fill="#4F8219"/>
<path fill-rule="evenodd" clip-rule="evenodd" d="M171.728 372.223C171.728 372.223 170.617 369.946 168.842 369.552C167.068 369.158 164.576 370.955 165.653 372.246C166.731 373.542 168.318 378.03 168.634 379.857C168.95 381.683 169.503 383.027 170.307 383.014C171.111 383.001 170.744 381.64 171.211 380.104C171.678 378.569 172.533 374.119 171.728 372.223Z" fill="#8EAD33"/>
<path fill-rule="evenodd" clip-rule="evenodd" d="M162.799 363.251C162.799 363.251 168.485 368.753 171.704 366.242C174.923 363.731 175.489 362.55 175.489 362.55C175.489 362.55 172.346 367.075 166.272 360.471C164.418 358.454 162.296 361.699 162.296 361.699C162.296 361.699 159.536 360.577 158.748 361.435C157.96 362.293 155.63 369.156 152.008 365.904C152.008 365.904 155.25 373.95 162.799 363.251Z" fill="#3E5528"/>
</g>
<path fill-rule="evenodd" clip-rule="evenodd" d="M426.055 266.731C424.715 269.51 422.776 271.975 424.826 273.072C428.629 275.098 443.058 278.447 445.528 281.313C457.843 295.601 474.453 310.827 480.617 315.462C488.603 321.473 508.225 327.819 514.202 334.344C524.661 345.772 544.791 374.887 556.518 388.215C564.953 397.804 578.416 405.282 584.556 414.325C590.079 422.464 593.359 442.481 593.359 442.481C593.359 442.481 592.371 420.171 589.181 414.383C585.987 408.593 564.171 391.484 560.512 385.846C556.848 380.207 521.954 336.478 519.145 331.209C516.336 325.94 494.478 316.801 488.907 313.679C483.338 310.554 454.072 285.277 451.117 279.494C448.163 273.712 426.055 266.731 426.055 266.731Z" fill="#6F8726"/>
<path fill-rule="evenodd" clip-rule="evenodd" d="M442.904 274.483C442.904 274.483 447.119 274.444 449.611 273.8C452.469 273.063 470.434 265.688 477.321 260.708C481.779 257.48 498.177 241.52 498.366 241.863C498.557 242.202 486.694 256.354 478.46 262.763C475.675 264.932 457.15 274.038 451.885 277.959C450.793 278.769 451.034 280.602 451.542 282.214" fill="#6F8726"/>
<path fill-rule="evenodd" clip-rule="evenodd" d="M497.71 242.844C497.71 242.844 515.297 241.089 514.257 224.65C514.257 224.65 496.67 225.6 497.71 242.844Z" fill="#679707"/>
<path d="M511.818 227.693C511.705 227.702 511.139 228.541 511.061 228.631C510.27 229.552 509.436 230.433 508.615 231.322C505.656 234.519 502.723 237.74 499.859 241.016" stroke="#436810" stroke-miterlimit="10" stroke-linecap="round" stroke-linejoin="round"/>
<path fill-rule="evenodd" clip-rule="evenodd" d="M493.936 247.517C493.936 247.517 502.944 238.69 514.721 247.353C514.721 247.353 507.899 258.814 493.936 247.517Z" fill="#679707"/>
<path d="M511.206 248.124C510.16 248.772 508.347 248.685 507.166 248.784C503.313 249.094 499.188 249.054 495.4 248.143" stroke="#436810" stroke-miterlimit="10" stroke-linecap="round" stroke-linejoin="round"/>
<path fill-rule="evenodd" clip-rule="evenodd" d="M461.303 273.015C461.303 273.015 477.956 270.643 483.768 289.244C483.768 289.244 467.371 296.173 461.303 273.015Z" fill="#679707"/>
<path d="M479.375 287.297C477.741 287.167 475.86 285.647 474.516 284.818C470.128 282.11 465.731 278.809 462.381 274.845" stroke="#436810" stroke-miterlimit="10" stroke-linecap="round" stroke-linejoin="round"/>
<path fill-rule="evenodd" clip-rule="evenodd" d="M490.289 249.587C490.289 249.587 500.332 240.802 490.301 229.706C490.301 229.706 481.736 237.457 490.289 249.587Z" fill="#679707"/>
<path d="M490.624 249.322C490.577 249.373 490.574 245.796 490.59 245.079C490.655 241.821 490.875 238.543 491.222 235.301" stroke="#436810" stroke-miterlimit="10" stroke-linecap="round" stroke-linejoin="round"/>
<path fill-rule="evenodd" clip-rule="evenodd" d="M452.742 272.989C452.742 272.989 462.786 264.199 452.754 253.107C452.754 253.107 444.185 260.857 452.742 272.989Z" fill="#679707"/>
<path d="M453.078 272.718C453.027 272.768 453.03 269.192 453.041 268.474C453.109 265.217 453.329 261.939 453.672 258.7" stroke="#436810" stroke-miterlimit="10" stroke-linecap="round" stroke-linejoin="round"/>
<path fill-rule="evenodd" clip-rule="evenodd" d="M484.564 256.248C484.564 256.248 497.512 253.499 503.097 264.931C503.097 264.931 490.234 271.558 484.564 256.248Z" fill="#679707"/>
<path d="M484.68 255.924C484.641 256.073 485.13 256.467 485.204 256.537C485.808 257.139 486.496 257.652 487.186 258.147C489.984 260.16 493.018 261.834 496.197 263.171" stroke="#436810" stroke-miterlimit="10" stroke-linecap="round" stroke-linejoin="round"/>
<path fill-rule="evenodd" clip-rule="evenodd" d="M479.231 259.388C479.231 259.388 486.331 247.428 475.193 240.982C475.193 240.982 466.356 250.203 479.231 259.388Z" fill="#679707"/>
<path d="M479.466 259.301C479.474 259.399 479.116 258.011 479.065 257.756C478.831 256.619 478.608 255.478 478.38 254.338C477.718 251.054 477.208 247.69 476.236 244.477" stroke="#436810" stroke-miterlimit="10" stroke-linecap="round" stroke-linejoin="round"/>
<path fill-rule="evenodd" clip-rule="evenodd" d="M474.483 264.313C474.483 264.313 490.102 263.766 491.543 279.186C491.543 279.186 475.294 278.128 474.483 264.313Z" fill="#679707"/>
<path d="M474.777 264.409C474.625 264.359 474.95 264.674 475.05 264.801C475.262 265.08 475.49 265.352 475.717 265.623C476.329 266.348 476.963 267.057 477.63 267.736C479.803 269.939 482.16 271.989 484.553 273.953" stroke="#436810" stroke-miterlimit="10" stroke-linecap="round" stroke-linejoin="round"/>
<path fill-rule="evenodd" clip-rule="evenodd" d="M469.879 265.105C469.879 265.105 478.772 254.805 464.475 245.948C464.475 245.948 457.571 256.737 469.879 265.105Z" fill="#679707"/>
<path d="M470.065 264.786C469.953 264.787 469.882 264.015 469.87 263.962C469.708 263.112 469.509 262.267 469.303 261.427C468.367 257.672 467.378 253.901 465.858 250.335" stroke="#436810" stroke-miterlimit="10" stroke-linecap="round" stroke-linejoin="round"/>
<path fill-rule="evenodd" clip-rule="evenodd" d="M476.134 311.117C476.134 311.117 479.806 313.82 481.313 318.595C482.265 321.605 487.447 341.386 487.637 350.248C487.757 355.992 479.487 391.407 479.919 391.443C480.346 391.483 490.04 361.353 490.221 350.481C490.281 346.807 485.945 325.029 485.9 318.182C485.889 316.762 487.699 315.878 489.492 315.357" fill="#6F8726"/>
<path fill-rule="evenodd" clip-rule="evenodd" d="M479.926 390.877C479.926 390.877 489.502 400.012 475.679 413.704C475.679 413.704 468.323 405.368 479.926 390.877Z" fill="#679707"/>
<path d="M476.12 410.25C475.984 408.679 476.821 406.63 477.13 405.117C477.925 401.188 478.805 397.276 479.587 393.345" stroke="#436810" stroke-miterlimit="10" stroke-linecap="round" stroke-linejoin="round"/>
<path fill-rule="evenodd" clip-rule="evenodd" d="M481.777 385.336C481.777 385.336 481.019 397.69 492.976 404.643C492.976 404.643 493.834 390.456 481.777 385.336Z" fill="#679707"/>
<path d="M490.831 401.213C488.126 396.713 485.633 392.109 482.719 387.725" stroke="#436810" stroke-miterlimit="10" stroke-linecap="round" stroke-linejoin="round"/>
<path fill-rule="evenodd" clip-rule="evenodd" d="M482.55 378.114C482.55 378.114 475.658 397.037 459.027 388.732C459.027 388.732 465.768 373.179 482.55 378.114Z" fill="#679707"/>
<path d="M464.538 387.217C464.37 387.298 464.887 387.065 465.053 386.979C465.477 386.759 465.904 386.541 466.331 386.326C467.655 385.673 468.978 385.025 470.296 384.361C474.341 382.316 478.316 379.655 482.59 378.085" stroke="#436810" stroke-miterlimit="10" stroke-linecap="round" stroke-linejoin="round"/>
<path fill-rule="evenodd" clip-rule="evenodd" d="M486.033 369.173C486.033 369.173 487.249 388.35 508.067 386.922C508.067 386.922 504.496 367.155 486.033 369.173Z" fill="#679707"/>
<path d="M504.158 383.788C498.663 378.935 493.496 373.895 487.324 369.875" stroke="#436810" stroke-miterlimit="10" stroke-linecap="round" stroke-linejoin="round"/>
<path fill-rule="evenodd" clip-rule="evenodd" d="M489.342 352.001C489.342 352.001 495.945 370.202 517.555 366.309C517.555 366.309 517.292 348.645 489.342 352.001Z" fill="#679707"/>
<path d="M515.238 364.476C514.644 364.439 513.6 363.406 513.134 363.101C511.466 361.998 509.749 360.969 508.03 359.958C502.889 356.927 497.422 354.27 491.62 352.811" stroke="#436810" stroke-miterlimit="10" stroke-linecap="round" stroke-linejoin="round"/>
<path fill-rule="evenodd" clip-rule="evenodd" d="M487.188 359.228C487.188 359.228 479.237 375.673 459.489 365.558C459.489 365.558 464.979 346.645 487.188 359.228Z" fill="#679707"/>
<path d="M464.595 364.058C464.375 364.144 465.012 363.846 465.221 363.745C465.717 363.508 466.235 363.325 466.754 363.139C468.284 362.588 469.799 361.997 471.339 361.465C475.948 359.879 481.032 358.579 485.938 359.257" stroke="#436810" stroke-miterlimit="10" stroke-linecap="round" stroke-linejoin="round"/>
<path fill-rule="evenodd" clip-rule="evenodd" d="M513.728 326.228C513.728 326.228 517.776 327.407 520.344 327.509C523.294 327.622 542.628 325.733 550.656 322.946C555.859 321.143 576.162 310.58 576.247 310.962C576.328 311.343 560.891 321.477 551.16 325.242C547.865 326.519 527.5 329.905 521.327 332.141C520.05 332.605 519.752 334.43 519.773 336.117" fill="#6F8726"/>
<path fill-rule="evenodd" clip-rule="evenodd" d="M572.786 312.945C572.786 312.945 589.64 322.301 598.011 300.942C598.011 300.942 581.369 293.089 572.786 312.945Z" fill="#679707"/>
<path d="M593.669 303.312C593.42 303.332 592.62 304.182 592.421 304.321C591.103 305.262 589.783 306.198 588.412 307.058C583.968 309.846 578.6 312.928 573.219 313.203" stroke="#436810" stroke-miterlimit="10" stroke-linecap="round" stroke-linejoin="round"/>
<path fill-rule="evenodd" clip-rule="evenodd" d="M561.529 318.899C561.529 318.899 571.85 313.487 587.293 327.993C587.293 327.993 573.513 336.922 561.529 318.899Z" fill="#679707"/>
<path d="M581.838 326.428C575.986 324.566 570.278 322.447 564.64 319.977" stroke="#436810" stroke-miterlimit="10" stroke-linecap="round" stroke-linejoin="round"/>
<path fill-rule="evenodd" clip-rule="evenodd" d="M566.97 314.51C566.97 314.51 579.083 307.547 571.77 293.046C571.77 293.046 557.515 298.091 566.97 314.51Z" fill="#679707"/>
<path d="M569.957 297.283C570.06 297.346 569.944 298.195 569.938 298.273C569.889 299.186 569.825 300.098 569.708 301.007C569.182 304.976 568.192 308.811 567.122 312.656" stroke="#436810" stroke-miterlimit="10" stroke-linecap="round" stroke-linejoin="round"/>
<path fill-rule="evenodd" clip-rule="evenodd" d="M533.612 325.805C533.612 325.805 545.72 318.84 538.408 304.34C538.408 304.34 524.153 309.384 533.612 325.805Z" fill="#679707"/>
<path d="M536.595 308.577C536.702 308.64 536.582 309.489 536.579 309.567C536.53 310.481 536.462 311.392 536.344 312.301C535.823 316.27 534.834 320.104 533.763 323.95" stroke="#436810" stroke-miterlimit="10" stroke-linecap="round" stroke-linejoin="round"/>
<path fill-rule="evenodd" clip-rule="evenodd" d="M551.591 323.852C551.591 323.852 566.891 321.937 574.215 340.555C574.215 340.555 559.339 341.789 551.591 323.852Z" fill="#679707"/>
<path d="M569.626 336.199C569.379 336.26 568.566 335.676 568.346 335.553C567.247 334.925 566.177 334.244 565.1 333.583C561.093 331.117 556.664 328.734 553.217 325.485" stroke="#436810" stroke-miterlimit="10" stroke-linecap="round" stroke-linejoin="round"/>
<path fill-rule="evenodd" clip-rule="evenodd" d="M537.948 327.736C537.948 327.736 553.27 329.54 555.91 349.368C555.91 349.368 541.175 347.004 537.948 327.736Z" fill="#679707"/>
<path d="M552.505 344.045C552.247 344.044 551.6 343.285 551.418 343.11C550.499 342.236 549.624 341.321 548.738 340.417C545.437 337.064 541.71 333.695 539.14 329.713" stroke="#436810" stroke-miterlimit="10" stroke-linecap="round" stroke-linejoin="round"/>
<path fill-rule="evenodd" clip-rule="evenodd" d="M545.976 325.262C545.976 325.262 563.64 316.214 556.913 298.422C556.913 298.422 541.21 304.779 545.976 325.262Z" fill="#679707"/>
<path d="M556.068 301.773C555.9 301.643 555.865 302.157 555.766 302.35C555.546 302.8 555.317 303.249 555.089 303.692C554.399 305.031 553.703 306.37 553.023 307.711C550.888 311.887 548.504 316.199 547.129 320.713C546.748 321.958 546.815 323.26 546.532 324.525" stroke="#436810" stroke-miterlimit="10" stroke-linecap="round" stroke-linejoin="round"/>
<path fill-rule="evenodd" clip-rule="evenodd" d="M642.263 393.799C642.263 393.799 665.377 400.923 670.079 381.375C670.079 381.375 650.449 373.067 642.263 393.799Z" fill="#679707"/>
<path d="M667.253 382.741C660.479 388.4 651.174 392.043 642.584 393.794" stroke="#436810" stroke-miterlimit="10" stroke-linecap="round" stroke-linejoin="round"/>
<path fill-rule="evenodd" clip-rule="evenodd" d="M618.037 405.199C618.037 405.199 632.184 392.634 621.023 378.26C621.023 378.26 609.106 386.825 618.037 405.199Z" fill="#679707"/>
<path d="M621.016 381.812C621.26 382.212 621.018 383.087 620.972 383.503C620.802 384.993 620.615 386.475 620.431 387.963C619.775 393.195 619.226 398.452 618.376 403.659" stroke="#436810" stroke-miterlimit="10" stroke-linecap="round" stroke-linejoin="round"/>
<path fill-rule="evenodd" clip-rule="evenodd" d="M582.631 407.469C582.631 407.469 586.679 408.649 589.252 408.751C592.202 408.865 611.262 407.235 619.289 404.448C624.494 402.641 645.204 391.891 645.15 392.203C645.095 392.52 628.704 402.568 618.973 406.338C615.68 407.612 596.078 409.681 589.904 411.917C588.623 412.38 587.122 413.039 587.394 414.627" fill="#6F8726"/>
<path fill-rule="evenodd" clip-rule="evenodd" d="M636.021 397.07C636.021 397.07 646.129 390.193 660.928 404.998C660.928 404.998 645.973 413.035 636.021 397.07Z" fill="#679707"/>
<path d="M656.719 404.155C656.778 404.342 656.327 404.104 656.136 404.066C655.623 403.954 655.115 403.837 654.602 403.715C653.025 403.347 651.455 402.952 649.897 402.495C645.22 401.11 640.929 399.208 636.627 396.946" stroke="#436810" stroke-miterlimit="10" stroke-linecap="round" stroke-linejoin="round"/>
<path fill-rule="evenodd" clip-rule="evenodd" d="M632.237 399.399C632.237 399.399 650.365 383.889 640.643 370.747C640.643 370.747 621.451 380.637 632.237 399.399Z" fill="#679707"/>
<path d="M639.799 375.65C639.905 376.183 639.436 377.087 639.286 377.579C638.836 379.1 638.374 380.615 637.917 382.131C636.194 387.776 633.818 393.308 632.376 399.025" stroke="#436810" stroke-miterlimit="10" stroke-linecap="round" stroke-linejoin="round"/>
<path fill-rule="evenodd" clip-rule="evenodd" d="M624.145 403.106C624.145 403.106 640.516 400.205 648.552 417.171C648.552 417.171 630.25 422.408 624.145 403.106Z" fill="#679707"/>
<path d="M643.38 413.884C643.388 413.89 641.472 413.279 641.129 413.122C639.854 412.546 638.6 411.929 637.352 411.308C633.14 409.222 628.049 407.071 624.591 403.806" stroke="#436810" stroke-miterlimit="10" stroke-linecap="round" stroke-linejoin="round"/>
<path fill-rule="evenodd" clip-rule="evenodd" d="M611.772 407.343C611.772 407.343 629.036 409.261 629.011 423.694C629.011 423.694 615.543 424.6 611.772 407.343Z" fill="#679707"/>
<path d="M624.722 420.519C624.837 420.635 624.276 420.189 624.255 420.176C623.927 419.897 623.612 419.607 623.296 419.313C622.304 418.384 621.343 417.419 620.38 416.458C617.511 413.58 614.622 410.655 612.153 407.424" stroke="#436810" stroke-miterlimit="10" stroke-linecap="round" stroke-linejoin="round"/>
<path fill-rule="evenodd" clip-rule="evenodd" d="M597.521 410.48C597.521 410.48 614.26 415.124 611.931 429.365C611.931 429.365 598.493 428.117 597.521 410.48Z" fill="#679707"/>
<path d="M609.002 425.264C609.157 425.296 608.739 425.077 608.627 424.963C608.371 424.698 608.13 424.424 607.892 424.141C607.047 423.148 606.234 422.135 605.422 421.117C602.972 418.055 600.637 414.891 598.461 411.621" stroke="#436810" stroke-miterlimit="10" stroke-linecap="round" stroke-linejoin="round"/>
<path fill-rule="evenodd" clip-rule="evenodd" d="M606.556 407.601C606.556 407.601 617.016 395.324 607.715 383.283C607.715 383.283 595.652 393.926 606.556 407.601Z" fill="#679707"/>
<path d="M607.548 387.694C607.448 387.527 607.485 388.079 607.441 388.274C607.339 388.733 607.246 389.196 607.162 389.659C606.907 391.105 606.699 392.555 606.508 394.009C606.01 397.864 605.259 402.328 606.161 406.187" stroke="#436810" stroke-miterlimit="10" stroke-linecap="round" stroke-linejoin="round"/>
<path fill-rule="evenodd" clip-rule="evenodd" d="M583.875 411.763C584.637 417.414 576.586 440.145 575.451 453.046C574.341 465.653 579.405 485.632 579.669 485.56C579.933 485.488 575.209 463.341 577.029 452.624C578.511 443.882 582.183 427.018 585.49 419.451C586.164 417.915 586.145 417.458 587.683 418.105" fill="#6F8726"/>
<path fill-rule="evenodd" clip-rule="evenodd" d="M596.245 507.386C596.245 507.386 598.98 483.372 578.885 482.353C578.885 482.353 574.345 503.167 596.245 507.386Z" fill="#679707"/>
<path d="M593.65 504.091C593.723 504.351 593.251 503.729 593.063 503.538C592.67 503.126 592.316 502.681 591.972 502.229C590.844 500.741 589.771 499.203 588.696 497.675C585.423 493.01 582.905 487.953 579.816 483.201" stroke="#436810" stroke-miterlimit="10" stroke-linecap="round" stroke-linejoin="round"/>
<path fill-rule="evenodd" clip-rule="evenodd" d="M577.64 473.131C577.64 473.131 586.776 489.204 604.517 482.782C604.517 482.782 591.529 468.095 577.64 473.131Z" fill="#679707"/>
<path d="M599.915 482.146C597.864 482.233 595.324 481.001 593.446 480.364C588.292 478.619 583.319 476.427 578.732 473.494" stroke="#436810" stroke-miterlimit="10" stroke-linecap="round" stroke-linejoin="round"/>
<path fill-rule="evenodd" clip-rule="evenodd" d="M578.523 478.46C578.523 478.46 577.553 493.479 560.273 497.703C560.273 497.703 563.443 478.645 578.523 478.46Z" fill="#679707"/>
<path d="M565.067 493.133C565.054 493.13 565.479 492.67 565.497 492.652C565.843 492.287 566.178 491.906 566.517 491.535C567.377 490.591 568.23 489.639 569.078 488.688C571.89 485.535 574.523 481.99 577.645 479.13" stroke="#436810" stroke-miterlimit="10" stroke-linecap="round" stroke-linejoin="round"/>
<path fill-rule="evenodd" clip-rule="evenodd" d="M577.066 460.528C577.066 460.528 583.616 474.934 601.892 470.722C601.892 470.722 598.653 457.227 577.066 460.528Z" fill="#679707"/>
<path d="M597.61 468.955C597.188 469.004 596.415 468.39 596.085 468.217C594.771 467.537 593.44 466.89 592.105 466.261C587.811 464.237 583.434 462.095 578.884 460.698" stroke="#436810" stroke-miterlimit="10" stroke-linecap="round" stroke-linejoin="round"/>
<path fill-rule="evenodd" clip-rule="evenodd" d="M576.623 465.433C576.623 465.433 577.103 481.446 555.168 483.101C555.168 483.101 559.871 463.359 576.623 465.433Z" fill="#679707"/>
<path d="M558.66 481.046C559.018 480.9 559.787 479.646 560.081 479.359C561.331 478.133 562.625 476.942 563.925 475.766C567.851 472.205 572.008 468.939 576.104 465.582" stroke="#436810" stroke-miterlimit="10" stroke-linecap="round" stroke-linejoin="round"/>
<path fill-rule="evenodd" clip-rule="evenodd" d="M577.767 447.738C577.767 447.738 587.371 463.207 603.517 451.138C603.517 451.138 588.838 437.386 577.767 447.738Z" fill="#679707"/>
<path d="M600.56 451.082C600.539 451.142 599.339 450.855 599.28 450.848C597.885 450.595 596.476 450.427 595.074 450.228C589.386 449.411 583.657 448.082 577.933 447.582" stroke="#436810" stroke-miterlimit="10" stroke-linecap="round" stroke-linejoin="round"/>
<path fill-rule="evenodd" clip-rule="evenodd" d="M576.807 453.291C576.807 453.291 571.791 465.163 551.18 458.334C551.18 458.334 564.692 442.394 576.807 453.291Z" fill="#679707"/>
<path d="M556.102 457.606C557.798 456.714 559.888 456.414 561.729 455.967C566.13 454.889 570.582 454.086 575.089 453.607" stroke="#436810" stroke-miterlimit="10" stroke-linecap="round" stroke-linejoin="round"/>
<path fill-rule="evenodd" clip-rule="evenodd" d="M578.627 437.22C578.627 437.22 576.235 453.56 555.986 443.021C555.986 443.021 566.322 427.8 578.627 437.22Z" fill="#679707"/>
<path d="M558.326 442.17C558.626 442.286 559.348 441.96 559.624 441.896C560.953 441.59 562.278 441.275 563.61 440.975C568.47 439.866 573.318 438.684 578.2 437.666" stroke="#436810" stroke-miterlimit="10" stroke-linecap="round" stroke-linejoin="round"/>
<path fill-rule="evenodd" clip-rule="evenodd" d="M555.193 385.107C555.193 385.107 557.446 389.072 556.876 394.043C556.513 397.181 553.183 417.352 549.741 425.519C547.509 430.817 535.096 451.012 535.369 451.146C535.643 451.28 546.789 436.166 551.384 426.312C552.942 422.98 558.48 401.804 561.231 395.534C561.802 394.235 563.813 394.164 565.663 394.416" fill="#6F8726"/>
<path fill-rule="evenodd" clip-rule="evenodd" d="M536.871 449.102C536.871 449.102 520.637 450.265 517.842 467.184C517.842 467.184 537.923 466.453 536.871 449.102Z" fill="#679707"/>
<path d="M521.165 464.499C523.527 463.034 525.632 461.023 527.717 459.212C530.994 456.364 534.276 453.404 536.678 449.761" stroke="#436810" stroke-miterlimit="10" stroke-linecap="round" stroke-linejoin="round"/>
<path fill-rule="evenodd" clip-rule="evenodd" d="M543.018 439.671C543.018 439.671 529.908 430.569 518.047 443.474C518.047 443.474 533.854 455.341 543.018 439.671Z" fill="#679707"/>
<path d="M522.793 442.928C523.245 442.705 524.285 442.84 524.773 442.804C526.264 442.702 527.752 442.568 529.238 442.396C533.777 441.872 538.505 441.258 542.716 439.375" stroke="#436810" stroke-miterlimit="10" stroke-linecap="round" stroke-linejoin="round"/>
<path fill-rule="evenodd" clip-rule="evenodd" d="M549.364 427.709C549.364 427.709 538.236 416.224 524.11 426.788C524.11 426.788 537.36 441.526 549.364 427.709Z" fill="#679707"/>
<path d="M528.82 427.5C535.357 428.673 542.322 428.222 548.903 427.749" stroke="#436810" stroke-miterlimit="10" stroke-linecap="round" stroke-linejoin="round"/>
<path fill-rule="evenodd" clip-rule="evenodd" d="M555.172 409.445C555.172 409.445 541.323 401.441 530.628 415.468C530.628 415.468 547.411 426.021 555.172 409.445Z" fill="#679707"/>
<path d="M536.027 414.638C536.199 414.728 536.945 414.328 537.116 414.26C538.348 413.769 539.591 413.336 540.861 412.949C545.184 411.634 549.532 410.565 553.972 409.748" stroke="#436810" stroke-miterlimit="10" stroke-linecap="round" stroke-linejoin="round"/>
<path fill-rule="evenodd" clip-rule="evenodd" d="M552.284 419.725C552.284 419.725 550.293 435.587 567.382 439.982C567.382 439.982 570.582 420.433 552.284 419.725Z" fill="#679707"/>
<path d="M563.244 433.371C560.659 428.345 557.106 423.117 552.584 419.657" stroke="#436810" stroke-miterlimit="10" stroke-linecap="round" stroke-linejoin="round"/>
<path fill-rule="evenodd" clip-rule="evenodd" d="M557.226 405.941C557.226 405.941 556.949 421.926 574.416 424.466C574.416 424.466 575.495 404.684 557.226 405.941Z" fill="#679707"/>
<path d="M570.781 420.177C566.86 415.013 562.76 409.844 557.517 405.94" stroke="#436810" stroke-miterlimit="10" stroke-linecap="round" stroke-linejoin="round"/>
<path fill-rule="evenodd" clip-rule="evenodd" d="M546.647 431.652C546.647 431.652 558.658 438.718 554.973 452.066C554.973 452.066 541.992 444.81 546.647 431.652Z" fill="#679707"/>
<path d="M553.43 448.319C553.429 448.35 553.18 447.908 553.154 447.856C552.976 447.479 552.807 447.098 552.643 446.719C552.182 445.66 551.729 444.599 551.296 443.532C549.854 439.971 548.471 436.367 546.856 432.886" stroke="#436810" stroke-miterlimit="10" stroke-linecap="round" stroke-linejoin="round"/>
<path fill-rule="evenodd" clip-rule="evenodd" d="M541.397 442.279C541.397 442.279 553.727 454.814 544.561 470.266C544.561 470.266 531.105 457.191 541.397 442.279Z" fill="#679707"/>
<path d="M543.902 465.639C544.013 465.892 543.939 465.087 543.935 464.809C543.926 464.206 543.905 463.602 543.884 462.997C543.821 461.377 543.735 459.761 543.604 458.141C543.165 452.786 542.598 447.247 541.211 442.034" stroke="#436810" stroke-miterlimit="10" stroke-linecap="round" stroke-linejoin="round"/>
<path fill-rule="evenodd" clip-rule="evenodd" d="M477.665 312.35C478.597 320.235 481.51 327.764 472.214 339.887C461.728 353.558 443.411 350.948 443.599 351.184C443.788 351.417 460.004 357.028 473.344 341.283C480.468 332.877 480.335 323.295 481.261 315.518" fill="#6F8726"/>
<path fill-rule="evenodd" clip-rule="evenodd" d="M446.931 351.282C446.931 351.282 448.533 353.318 446.278 354.869C444.024 356.42 441.866 358.781 443.677 359.659C443.677 359.659 440.753 359.279 441.654 357.011C442.551 354.743 446.931 351.282 446.931 351.282Z" fill="#334428"/>
<path fill-rule="evenodd" clip-rule="evenodd" d="M447.072 350.082C447.072 350.082 449.11 347.697 447.743 345.856C446.38 344.011 442.447 342.189 443.1 340.145C443.1 340.145 440.729 343.101 442.534 345.344C444.339 347.582 447.072 350.082 447.072 350.082Z" fill="#334428"/>
<path fill-rule="evenodd" clip-rule="evenodd" d="M429.678 357.003C438.288 359.199 446.804 354.213 446.804 354.213C446.804 354.213 442.599 341.48 434.357 340.787C426.115 340.094 424.214 343.383 420.041 340.668C419.068 340.033 418.866 354.245 429.678 357.003Z" fill="#679707"/>
<path fill-rule="evenodd" clip-rule="evenodd" d="M420.014 345.92C420.902 350.076 423.479 355.419 429.678 357.003C438.288 359.199 446.804 354.213 446.804 354.213C446.804 354.213 444.69 347.809 440.52 343.838C441.347 346.273 442.211 349.948 440.646 351.616C438.346 354.063 426.456 358.014 420.014 345.92Z" fill="#4F8219"/>
<path fill-rule="evenodd" clip-rule="evenodd" d="M436.061 342.424C436.061 342.424 438.324 343.563 438.696 345.342C439.068 347.121 437.239 349.591 435.962 348.498C434.68 347.404 430.212 345.76 428.389 345.421C426.567 345.082 425.231 344.513 425.254 343.709C425.277 342.905 426.633 343.289 428.174 342.841C429.716 342.394 434.176 341.595 436.061 342.424Z" fill="#8EAD33"/>
<path fill-rule="evenodd" clip-rule="evenodd" d="M444.921 351.464C444.921 351.464 439.491 345.71 442.042 342.522C444.592 339.335 445.781 338.784 445.781 338.784C445.781 338.784 441.216 341.87 447.744 348.026C449.738 349.906 446.466 351.987 446.466 351.987C446.466 351.987 447.553 354.76 446.686 355.538C445.817 356.315 438.926 358.559 442.132 362.221C442.132 362.221 434.127 358.878 444.921 351.464Z" fill="#3E5528"/>
<path fill-rule="evenodd" clip-rule="evenodd" d="M257.852 299.428C260.016 297.395 262.609 295.85 261.148 294.158C258.434 291.024 246.639 283.034 245.413 279.606C239.297 262.521 229.651 243.11 225.72 236.818C220.63 228.662 205.209 216.185 202.099 208.26C196.661 194.384 188.657 161.283 182.738 145.263C178.481 133.737 168.981 122.372 166.595 112.129C164.451 102.912 168.428 83.8003 168.428 83.8003C168.428 83.8003 161.601 104.18 162.463 110.48C163.329 116.783 176.998 139.684 178.333 146.011C179.672 152.342 195.878 203.667 196.578 209.37C197.277 215.072 213.74 230.829 217.661 235.556C221.581 240.287 239.113 273.096 239.766 279.31C240.419 285.524 257.852 299.428 257.852 299.428Z" fill="#9FC431"/>
<path fill-rule="evenodd" clip-rule="evenodd" d="M245.407 286.647C245.407 286.647 241.61 285.227 239.15 284.944C236.33 284.619 217.652 285.04 209.748 287.134C204.629 288.493 184.39 297.166 184.339 296.792C184.285 296.422 199.828 287.808 209.435 284.895C212.686 283.908 232.465 282.127 238.547 280.424C239.807 280.073 240.224 278.344 240.326 276.72" fill="#9FC431"/>
<path fill-rule="evenodd" clip-rule="evenodd" d="M185.267 296.138C185.267 296.138 168.872 291.64 164.122 306.764C164.122 306.764 180.239 311.985 185.267 296.138Z" fill="#86B627"/>
<path fill-rule="evenodd" clip-rule="evenodd" d="M190.271 293.244C190.271 293.244 179.133 298.061 171.555 286.213C171.555 286.213 181.642 278.275 190.271 293.244Z" fill="#86B627"/>
<path fill-rule="evenodd" clip-rule="evenodd" d="M228.382 281.612C228.382 281.612 212.612 277.992 213.826 259.278C213.826 259.278 230.942 258.717 228.382 281.612Z" fill="#86B627"/>
<path fill-rule="evenodd" clip-rule="evenodd" d="M194.261 292.644C194.261 292.644 182.208 297.066 187.376 310.497C187.376 310.497 197.744 306.493 194.261 292.644Z" fill="#86B627"/>
<path fill-rule="evenodd" clip-rule="evenodd" d="M236.059 284.592C236.059 284.592 224.003 289.018 229.174 302.445C229.174 302.445 239.546 298.443 236.059 284.592Z" fill="#86B627"/>
<path fill-rule="evenodd" clip-rule="evenodd" d="M201.703 288.639C201.703 288.639 189.129 286.636 188.068 274.44C188.068 274.44 201.906 272.929 201.703 288.639Z" fill="#86B627"/>
<path fill-rule="evenodd" clip-rule="evenodd" d="M207.576 287.66C207.576 287.66 197.067 295.95 204.837 305.586C204.837 305.586 215.959 300.355 207.576 287.66Z" fill="#86B627"/>
<path fill-rule="evenodd" clip-rule="evenodd" d="M213.542 284.876C213.542 284.876 199.331 279.974 203.369 265.626C203.369 265.626 217.591 272.188 213.542 284.876Z" fill="#86B627"/>
<path fill-rule="evenodd" clip-rule="evenodd" d="M217.948 285.754C217.948 285.754 206.404 291.935 216.176 304.826C216.176 304.826 226.104 297.521 217.948 285.754Z" fill="#86B627"/>
<path fill-rule="evenodd" clip-rule="evenodd" d="M228.242 242.269C228.242 242.269 225.88 238.573 226.178 233.764C226.364 230.732 228.552 211.175 231.445 203.15C233.323 197.95 252.993 168.997 252.617 168.816C252.247 168.633 233.128 192.346 229.206 202.049C227.881 205.328 224.244 226.385 221.918 232.551C221.436 233.83 219.506 233.998 217.716 233.848" fill="#9FC431"/>
<path fill-rule="evenodd" clip-rule="evenodd" d="M252.415 169.322C252.415 169.322 246.977 157.811 264.121 150.287C264.121 150.287 267.842 160.314 252.415 169.322Z" fill="#86B627"/>
<path fill-rule="evenodd" clip-rule="evenodd" d="M248.838 173.659C248.838 173.659 253.79 162.825 245.46 152.452C245.46 152.452 239.785 164.897 248.838 173.659Z" fill="#86B627"/>
<path fill-rule="evenodd" clip-rule="evenodd" d="M245.647 179.878C245.647 179.878 258.377 165.263 270.435 178.465C270.435 178.465 259.006 190.107 245.647 179.878Z" fill="#86B627"/>
<path fill-rule="evenodd" clip-rule="evenodd" d="M239.429 186.707C239.429 186.707 244.968 169.062 225.786 163.156C225.786 163.156 222.157 182.143 239.429 186.707Z" fill="#86B627"/>
<path fill-rule="evenodd" clip-rule="evenodd" d="M230.522 200.987C230.522 200.987 230.887 182.359 210.141 178.393C210.141 178.393 204.27 194.349 230.522 200.987Z" fill="#86B627"/>
<path fill-rule="evenodd" clip-rule="evenodd" d="M234.953 195.24C234.953 195.24 247.777 183.215 262.008 199.12C262.008 199.12 250.54 214.211 234.953 195.24Z" fill="#86B627"/>
<path fill-rule="evenodd" clip-rule="evenodd" d="M199.718 215.714C199.718 215.714 196.492 213.257 194.221 212.279C191.613 211.158 173.604 206.178 165.433 205.909C160.138 205.732 138.259 208.208 138.315 207.836C138.374 207.465 155.736 203.694 165.774 203.673C169.174 203.664 188.626 207.656 194.941 207.779C196.248 207.803 197.146 206.267 197.71 204.745" fill="#9FC431"/>
<path fill-rule="evenodd" clip-rule="evenodd" d="M142.108 207.249C142.108 207.249 130.213 193.026 115.314 209.319C115.314 209.319 127.538 222.119 142.108 207.249Z" fill="#86B627"/>
<path fill-rule="evenodd" clip-rule="evenodd" d="M154.273 205.789C154.273 205.789 143.136 207.085 134.288 188.724C134.288 188.724 149.746 185.463 154.273 205.789Z" fill="#86B627"/>
<path fill-rule="evenodd" clip-rule="evenodd" d="M147.871 207.852C147.871 207.852 134.589 209.924 136.14 225.472C136.14 225.472 150.681 225.864 147.871 207.852Z" fill="#86B627"/>
<path fill-rule="evenodd" clip-rule="evenodd" d="M181.722 209.227C181.722 209.227 168.444 211.301 169.995 226.85C169.995 226.85 184.536 227.242 181.722 209.227Z" fill="#86B627"/>
<path fill-rule="evenodd" clip-rule="evenodd" d="M164.906 204.772C164.906 204.772 150.509 201.209 150.372 181.957C150.372 181.957 164.153 185.986 164.906 204.772Z" fill="#86B627"/>
<path fill-rule="evenodd" clip-rule="evenodd" d="M178.496 205.996C178.496 205.996 165.365 199.084 169.852 180.364C169.852 180.364 182.261 187.576 178.496 205.996Z" fill="#86B627"/>
<path fill-rule="evenodd" clip-rule="evenodd" d="M170.435 205.445C170.435 205.445 151.449 207.472 151.337 225.775C151.337 225.775 167.632 225.488 170.435 205.445Z" fill="#86B627"/>
<path fill-rule="evenodd" clip-rule="evenodd" d="M107.693 110.637C107.693 110.637 89.4066 96.2565 78.4267 112.189C78.4267 112.189 93.1762 126.431 107.693 110.637Z" fill="#86B627"/>
<path fill-rule="evenodd" clip-rule="evenodd" d="M133.383 108.764C133.383 108.764 116.339 115.164 121.389 131.929C121.389 131.929 135.048 128.351 133.383 108.764Z" fill="#86B627"/>
<path fill-rule="evenodd" clip-rule="evenodd" d="M165.953 118.952C165.953 118.952 162.728 116.495 160.453 115.514C157.844 114.394 140.169 109.275 132 109.006C126.703 108.832 104.395 111.335 104.551 111.074C104.71 110.808 122.898 107.444 132.938 107.418C136.334 107.411 154.647 112.322 160.962 112.446C162.272 112.473 163.848 112.399 164.153 110.878" fill="#9FC431"/>
<path fill-rule="evenodd" clip-rule="evenodd" d="M114.428 109.855C114.428 109.855 102.976 112.541 94.81 94.1335C94.81 94.1335 111.014 92.0795 114.428 109.855Z" fill="#86B627"/>
<path fill-rule="evenodd" clip-rule="evenodd" d="M118.631 109.069C118.631 109.069 96.9945 116.74 101.178 131.901C101.178 131.901 121.827 129.645 118.631 109.069Z" fill="#86B627"/>
<path fill-rule="evenodd" clip-rule="evenodd" d="M127.177 108.535C127.177 108.535 111.477 105.487 110.129 87.4737C110.129 87.4737 128.37 89.09 127.177 108.535Z" fill="#86B627"/>
<path fill-rule="evenodd" clip-rule="evenodd" d="M139.749 109.002C139.749 109.002 124.914 101.317 129.926 88.3629C129.926 88.3629 142.331 92.2004 139.749 109.002Z" fill="#86B627"/>
<path fill-rule="evenodd" clip-rule="evenodd" d="M153.627 111.105C153.627 111.105 140.206 101.153 147.221 89.1668C147.221 89.1668 158.853 94.9289 153.627 111.105Z" fill="#86B627"/>
<path fill-rule="evenodd" clip-rule="evenodd" d="M144.52 110.571C144.52 110.571 130.885 117.986 135.071 132.012C135.071 132.012 149.58 126.619 144.52 110.571Z" fill="#86B627"/>
<path fill-rule="evenodd" clip-rule="evenodd" d="M166.321 114.666C167.59 109.327 182.678 91.691 188.158 80.4962C193.512 69.5567 195.875 49.8634 195.613 49.837C195.351 49.8106 191.934 71.3328 186.595 80.3301C182.241 87.6706 173.115 101.548 167.53 107.203C166.393 108.35 166.252 108.767 165.095 107.654" fill="#9FC431"/>
<path fill-rule="evenodd" clip-rule="evenodd" d="M188.278 24.5098C188.278 24.5098 177.521 45.1338 195.208 52.9879C195.208 52.9879 206.48 35.8613 188.278 24.5098Z" fill="#86B627"/>
<path fill-rule="evenodd" clip-rule="evenodd" d="M193.137 61.7001C193.137 61.7001 190.492 44.1096 172.346 43.7508C172.346 43.7508 178.928 61.4272 193.137 61.7001Z" fill="#86B627"/>
<path fill-rule="evenodd" clip-rule="evenodd" d="M194.188 56.609C194.188 56.609 200.251 43.4551 217.224 45.6287C217.224 45.6287 207.789 61.6505 194.188 56.609Z" fill="#86B627"/>
<path fill-rule="evenodd" clip-rule="evenodd" d="M189.294 73.2188C189.294 73.2188 188.395 58.0175 170.533 55.4891C170.533 55.4891 168.774 68.7281 189.294 73.2188Z" fill="#86B627"/>
<path fill-rule="evenodd" clip-rule="evenodd" d="M191.388 68.9651C191.388 68.9651 196.494 54.4181 216.758 60.506C216.758 60.506 205.709 76.6133 191.388 68.9651Z" fill="#86B627"/>
<path fill-rule="evenodd" clip-rule="evenodd" d="M184.243 84.4639C184.243 84.4639 180.97 67.2537 162.302 72.5182C162.302 72.5182 170.725 89.9387 184.243 84.4639Z" fill="#86B627"/>
<path fill-rule="evenodd" clip-rule="evenodd" d="M187.025 79.8072C187.025 79.8072 195.632 70.8769 211.774 84.1278C211.774 84.1278 194.133 93.7784 187.025 79.8072Z" fill="#86B627"/>
<path fill-rule="evenodd" clip-rule="evenodd" d="M179.834 93.6137C179.834 93.6137 187.631 79.764 202.165 96.2219C202.165 96.2219 187.624 106.324 179.834 93.6137Z" fill="#86B627"/>
<path fill-rule="evenodd" clip-rule="evenodd" d="M182.853 148.512C182.853 148.512 182.201 144.173 184.432 139.904C185.843 137.211 195.806 120.245 201.72 114.098C205.555 110.11 223.682 96.2586 223.482 96.0439C223.283 95.8291 208.051 105.555 200.519 112.818C197.968 115.273 185.675 132.38 181.037 137.061C180.076 138.031 178.246 137.4 176.672 136.535" fill="#9FC431"/>
<path fill-rule="evenodd" clip-rule="evenodd" d="M221.427 97.361C221.427 97.361 236.403 101.922 244.762 87.692C244.762 87.692 226.482 81.4132 221.427 97.361Z" fill="#86B627"/>
<path fill-rule="evenodd" clip-rule="evenodd" d="M212.649 103.708C212.649 103.708 221.271 116.41 236.381 108.916C236.381 108.916 226.294 92.799 212.649 103.708Z" fill="#86B627"/>
<path fill-rule="evenodd" clip-rule="evenodd" d="M202.815 112.261C202.815 112.261 208.834 126.419 225.168 121.809C225.168 121.809 218.369 103.996 202.815 112.261Z" fill="#86B627"/>
<path fill-rule="evenodd" clip-rule="evenodd" d="M191.287 126.66C191.287 126.66 200.952 138.63 215.404 129.725C215.404 129.725 203.986 114.451 191.287 126.66Z" fill="#86B627"/>
<path fill-rule="evenodd" clip-rule="evenodd" d="M197.435 118.423C197.435 118.423 204.706 104.864 190.885 95.0151C190.885 95.0151 181.253 111.468 197.435 118.423Z" fill="#86B627"/>
<path fill-rule="evenodd" clip-rule="evenodd" d="M188.231 129.098C188.231 129.098 194.007 114.836 179.205 106.523C179.205 106.523 171.396 123.918 188.231 129.098Z" fill="#86B627"/>
<path fill-rule="evenodd" clip-rule="evenodd" d="M206.619 109.658C206.619 109.658 198.279 99.1639 206.202 88.4472C206.202 88.4472 215.346 99.4472 206.619 109.658Z" fill="#86B627"/>
<path fill-rule="evenodd" clip-rule="evenodd" d="M215.006 101.927C215.006 101.927 208.271 86.4101 221.842 75.6967C221.842 75.6967 229.401 92.0875 215.006 101.927Z" fill="#86B627"/>
<path fill-rule="evenodd" clip-rule="evenodd" d="M227.294 240.632C229.183 233.228 229.172 225.46 241.708 217.781C255.849 209.124 271.39 217.794 271.303 217.517C271.213 217.243 258.596 206.603 241.177 216.137C231.875 221.228 228.682 229.879 225.161 236.545" fill="#9FC431"/>
<path fill-rule="evenodd" clip-rule="evenodd" d="M268.345 216.278C268.345 216.278 267.612 213.896 270.172 213.282C272.732 212.667 275.486 211.292 274.163 209.878C274.163 209.878 276.656 211.229 275.064 212.955C273.475 214.682 268.345 216.278 268.345 216.278Z" fill="#334428"/>
<path fill-rule="evenodd" clip-rule="evenodd" d="M267.804 217.308C267.804 217.308 265.15 218.746 265.741 220.872C266.326 223 269.226 225.994 267.934 227.605C267.934 227.605 271.084 225.769 270.24 223.13C269.393 220.497 267.804 217.308 267.804 217.308Z" fill="#334428"/>
<path fill-rule="evenodd" clip-rule="evenodd" d="M285.812 217.097C278.842 212.153 269.473 213.689 269.473 213.689C269.473 213.689 268.846 226.578 276.005 230.047C283.164 233.516 286.008 231.218 288.816 235.097C289.47 236.003 294.565 223.309 285.812 217.097Z" fill="#86B627"/>
<path fill-rule="evenodd" clip-rule="evenodd" d="M290.655 230.39C291.295 226.35 290.829 220.662 285.812 217.097C278.842 212.153 269.473 213.689 269.473 213.689C269.473 213.689 269.157 220.171 271.527 225.178C271.627 222.706 272.122 219.106 274.103 218.149C277.014 216.745 289.054 217.303 290.655 230.39Z" fill="#4F8219"/>
<path fill-rule="evenodd" clip-rule="evenodd" d="M275.04 227.988C275.04 227.988 273.403 226.183 273.685 224.457C273.966 222.731 276.461 221.144 277.23 222.567C278.003 223.993 281.445 227.011 282.964 227.945C284.483 228.879 285.486 229.852 285.187 230.566C284.889 231.28 283.804 230.467 282.265 230.337C280.727 230.206 276.447 229.384 275.04 227.988Z" fill="#8EAD33"/>
<path fill-rule="evenodd" clip-rule="evenodd" d="M270.214 216.81C270.214 216.81 273.099 223.853 269.706 225.835C266.315 227.816 265.057 227.901 265.057 227.901C265.057 227.901 270.222 226.705 266.49 218.922C265.35 216.546 269.007 215.806 269.007 215.806C269.007 215.806 268.99 212.94 270.038 212.541C271.086 212.143 278.048 212.507 276.436 208.111C276.436 208.111 282.466 213.878 270.214 216.81Z" fill="#A3BF88"/>
<defs>
<filter id="filter0_f_74_1067" x="-4" y="111" width="313.146" height="314.742" filterUnits="userSpaceOnUse" color-interpolation-filters="sRGB">
<feFlood flood-opacity="0" result="BackgroundImageFix"/>
<feBlend mode="normal" in="SourceGraphic" in2="BackgroundImageFix" result="shape"/>
<feGaussianBlur stdDeviation="2" result="effect1_foregroundBlur_74_1067"/>
</filter>
</defs>
</svg>
