<svg width="51" height="51" viewBox="0 0 51 51" fill="none" xmlns="http://www.w3.org/2000/svg">
<path fill-rule="evenodd" clip-rule="evenodd" d="M17.4954 18.7017C21.0275 20.41 31.5423 27.5141 31.5423 39.1106C31.5423 43.7584 28.2412 47.5216 24.1732 47.5216C21.1242 47.5216 18.5064 45.4069 17.3848 42.3908C16.1477 45.0563 13.6973 46.8722 10.8704 46.8722C6.80132 46.8722 3.50127 43.106 3.50127 38.4582C3.50127 28.4883 14.2621 24.3007 17.4954 18.7017Z" fill="#D1F349"/>
<path d="M16.7045 42.2025C16.9724 39.4583 16.3031 36.719 14.79 34.4071C14.5808 34.0853 14.6715 33.653 14.9932 33.4438C15.3149 33.2317 15.7472 33.3223 15.9564 33.6441C16.8061 34.943 17.4187 36.3773 17.7803 37.8735C18.1249 39.3138 18.2345 40.807 18.094 42.2981C18.622 43.6389 19.4686 44.7744 20.5275 45.5733C23.1791 47.5784 26.6515 47.1232 28.8598 44.6021C30.085 43.2016 30.842 41.2622 30.842 39.1106C30.842 32.0603 26.782 26.3537 21.8712 22.3862C20.2904 21.1132 18.8102 20.1809 17.7434 19.6111C16.2951 21.7826 14.0559 23.5447 11.8784 25.504L11.8615 25.5209C8.10322 28.8419 4.19853 32.6589 4.19853 38.4582C4.19853 40.6097 4.95556 42.5491 6.18374 43.9496C8.30941 46.3781 11.6364 46.909 14.27 45.0991C15.287 44.3989 16.1287 43.3988 16.7045 42.2025ZM17.7972 18.0741C18.8421 18.5791 20.4827 19.5454 22.2896 20.9488C23.3853 19.8731 24.5935 19.0573 25.8725 18.4247C25.7853 18.38 25.7082 18.3176 25.6464 18.2415C23.4211 15.4803 20.2844 13.526 16.823 12.758C16.4475 12.6763 16.2134 12.3057 16.2951 11.9302C16.3768 11.5547 16.7473 11.3206 17.1228 11.4023C20.904 12.241 24.3027 14.3557 26.7312 17.3689C26.8756 17.5472 26.9144 17.7723 26.8636 17.9755C28.0211 17.4984 29.2274 17.1507 30.4496 16.8888C30.3281 15.5361 29.8649 14.2093 29.1168 13.0379C24.1164 5.19164 15.3548 6.45867 9.22183 3.50824C8.59827 3.20942 7.94284 3.51422 7.64103 4.14375C7.50257 4.42863 7.42687 4.7932 7.44081 5.23049C7.5195 7.56035 6.81427 10.0476 6.07716 12.6534C4.77825 17.2474 3.36978 22.2229 6.29431 26.8138C6.57421 27.2541 6.89296 27.6665 7.2406 28.045C8.27654 26.9015 9.40909 25.8456 10.5387 24.8376C8.71482 21.2965 8.10521 17.2563 8.80745 13.3228C8.87519 12.9472 9.23677 12.6962 9.61528 12.7639C9.9938 12.8317 10.2448 13.1933 10.1771 13.5688C9.54876 17.0737 10.0533 20.6875 11.6174 23.8863C13.7491 22.0147 15.816 20.2267 16.8918 18.355C17.075 18.0393 17.4705 17.9197 17.7952 18.0781L17.7972 18.0741ZM23.3763 21.8324C26.2819 24.2997 28.9335 27.4454 30.5651 31.1837C32.5673 27.1147 36.972 24.8227 41.4674 25.5229C41.8459 25.5827 42.1059 25.9383 42.0491 26.3168C41.9893 26.6953 41.6337 26.9553 41.2552 26.8955C37.8476 26.3646 34.433 27.8269 32.4736 30.6677C31.9584 31.415 31.5604 32.2367 31.2933 33.1042C31.886 34.9539 32.2366 36.9551 32.2366 39.1096C32.2366 39.7392 32.1798 40.3547 32.0732 40.9474C33.5723 42.8111 35.9699 43.4974 38.3277 42.9466C40.1406 42.5203 41.8857 41.3847 43.1358 39.6405C45.643 36.1333 46.5524 32.2685 46.6202 28.6536C46.7188 23.3006 44.9886 18.4975 43.8331 16.1566C38.2141 18.2783 29.0461 16.4395 23.3763 21.8324ZM31.6499 42.5322C30.4954 45.7396 27.6745 48.2189 24.1732 48.2189C21.2307 48.2189 18.7176 46.4538 17.3231 43.9218C14.4095 48.3066 8.65505 48.8823 5.13685 44.8651C3.6965 43.2185 2.80499 40.9544 2.80499 38.4582C2.80499 34.6322 4.28718 31.6449 6.33116 29.1088C5.88491 28.6347 5.47851 28.1177 5.12589 27.5589C1.86169 22.44 3.35882 17.1537 4.73941 12.2779C5.44763 9.77367 6.12298 7.38504 6.05226 5.27531C6.0154 4.11785 6.43376 3.03908 7.33722 2.43246C8.07732 1.93242 9.01165 1.86768 9.82247 2.25416C11.6603 3.1377 13.8407 3.62877 16.1048 4.14076C21.156 5.2783 26.6057 6.50947 30.2902 12.2928C31.1369 13.6196 31.6628 15.0998 31.8202 16.6268C33.41 16.3588 35.0047 16.2005 36.5467 16.0481C39.3387 15.7712 41.9425 15.5112 43.8709 14.6366C44.2206 14.4812 44.631 14.6336 44.7884 14.9783C45.9797 17.1776 48.1203 22.5994 48.0097 28.6755C47.939 32.5434 46.9618 36.6831 44.2684 40.4474C42.8141 42.4804 40.7701 43.8042 38.6435 44.3043C36.1393 44.89 33.5335 44.3172 31.6499 42.5322Z" fill="#336667"/>
</svg>
