<svg width="44" height="44" viewBox="0 0 44 44" fill="none" xmlns="http://www.w3.org/2000/svg">
<path d="M22 44C34.1503 44 44 34.1503 44 22C44 9.84974 34.1503 0 22 0C9.84974 0 0 9.84974 0 22C0 34.1503 9.84974 44 22 44Z" fill="#4D9215"/>
<path d="M31.6676 26.633C31.6655 26.5687 31.614 26.5154 31.5486 26.5127C31.4797 26.5097 31.4213 26.564 31.4193 26.633C31.3829 27.531 31.2166 28.4149 30.9231 29.2577L30.8732 29.3888L30.7737 29.6507C30.723 29.7639 30.6606 29.9138 30.6057 30.0354C30.5484 30.1621 30.4843 30.2877 30.4197 30.4109C29.5863 31.999 28.2482 33.3242 26.6472 34.1285C25.9769 34.4861 25.2127 34.7371 24.4677 34.8756C24.0281 34.9573 23.5853 35.0083 23.139 35.0277C20.6356 35.1443 18.1257 34.0166 16.5107 32.1111C16.0352 31.5501 15.6437 30.921 15.3366 30.2535C14.6313 28.7206 14.4417 26.9597 14.7933 25.3128C14.9891 24.3824 15.3608 23.4942 15.8777 22.7017C18.4985 24.5244 21.9812 24.5006 24.2733 23.3537C26.9793 21.9993 28.9195 19.2201 29.258 16.213C29.5966 13.2063 28.323 10.0651 25.9858 8.14285C25.7014 7.90904 25.3724 7.68206 25.0045 7.68964C24.407 7.70186 24.0185 8.29013 23.6313 8.7451C22.601 9.95633 21.0049 10.507 19.4671 10.9113C17.9294 11.3158 16.3192 11.6483 15.0288 12.5775C13.8462 13.4291 13.0205 14.7614 12.7839 16.1995C12.64 17.0724 12.7144 17.9781 12.9848 18.8201C13.0903 19.1492 13.523 19.2239 13.732 18.9487C14.3266 18.1668 15.0697 17.4894 15.8765 16.9245C17.2025 15.9959 18.7019 15.3474 20.2092 14.7575C21.0329 14.4353 21.8953 14.1221 22.6903 13.7692C22.8723 13.6885 23.0156 13.9399 22.8533 14.0549C22.012 14.6502 21.1185 15.1618 20.1986 15.6723C18.7281 16.4883 17.2384 17.3046 15.9796 18.4325C15.9043 18.4999 15.828 18.571 15.751 18.6448C11.995 22.0195 11.1765 27.7238 14.0587 31.9681C14.1938 32.1743 14.379 32.413 14.5291 32.6085C14.5833 32.6755 14.7829 32.9078 14.8355 32.9726C14.9155 33.058 15.0764 33.2351 15.1583 33.321C16.073 34.28 17.2232 35.0621 18.4503 35.5595C18.9107 35.7462 19.3767 35.894 19.856 36.0225C19.9439 36.0433 20.07 36.0782 20.1586 36.0931C20.2169 36.1034 20.486 36.1588 20.5394 36.1675C20.6502 36.1852 20.8115 36.207 20.9229 36.2235C21.6654 36.3325 22.4307 36.3352 23.1757 36.2538C23.7534 36.1907 24.3195 36.0756 24.8799 35.9243C25.0482 35.8718 25.2952 35.7972 25.4598 35.7339C25.5957 35.6793 25.7539 35.63 25.8855 35.5684C25.9255 35.5494 26.2041 35.4326 26.234 35.4164C26.2801 35.3928 26.39 35.3407 26.4384 35.3156C26.479 35.2965 26.6049 35.232 26.6423 35.2146C26.7307 35.166 26.9514 35.0423 27.0397 34.9936C27.1578 34.9209 27.3073 34.8273 27.4252 34.7541C30.1554 32.9627 31.7823 29.9012 31.6676 26.633Z" fill="#D1F349"/>
</svg>
