<svg width="1127" height="122" viewBox="0 0 1127 122" fill="none" xmlns="http://www.w3.org/2000/svg">
<path d="M16.9238 2.82031C20.2143 2.82036 22.7528 3.38455 24.5391 4.5127C26.4194 5.64092 27.7361 7.52176 28.4883 10.1543C29.2404 12.7868 29.6162 16.4535 29.6162 21.1543V89.5537H57.1162V2.82031H75.4502V89.5537H102.951V2.82031H121.285V89.5537H126.221C127.631 89.5537 128.806 90.0237 129.746 90.9639C130.686 91.904 131.156 93.079 131.156 94.4893V121.99H124.105C123.353 115.127 122.225 109.814 120.721 106.054C119.31 102.293 117.43 99.6606 115.079 98.1562C112.729 96.652 109.861 95.8994 106.477 95.8994H11.2822V21.1543C11.2822 16.9235 10.6715 13.5385 9.44922 11C8.32095 8.36757 5.64093 7.05176 1.41016 7.05176H0V2.82031H16.9238ZM1005.33 0C1014.17 0 1021.27 1.17491 1026.63 3.52539C1032.08 5.78184 1036.12 8.41523 1038.76 11.4238C1040.64 13.8682 1041.72 17.0175 1042 20.8721C1042.28 24.7267 1042.42 28.7227 1042.42 32.8594H1038.19C1036.41 24.3039 1033.12 17.7697 1028.32 13.2568C1023.62 8.64996 1017.37 6.34675 1009.56 6.34668C1003.83 6.34668 998.61 7.66251 993.909 10.2949C989.208 12.9274 985.448 17.4875 982.627 23.9746C979.9 30.3679 978.537 39.3002 978.537 50.7705C978.537 56.1295 979.101 61.3003 980.229 66.2832C981.358 71.2662 983.143 75.7328 985.588 79.6816C988.126 83.6303 991.323 86.7328 995.178 88.9893C999.127 91.2457 1003.92 92.374 1009.56 92.374C1016.05 92.374 1022.07 90.6815 1027.62 87.2969C1033.16 83.8182 1037.63 78.7882 1041.01 72.207L1045.95 76.0146C1041.53 83.818 1036.12 89.553 1029.73 93.2197C1023.34 96.8865 1015.2 98.7207 1005.33 98.7207C995.46 98.7207 987.045 96.6049 980.088 92.374C973.131 88.1433 967.819 82.4081 964.152 75.1689C960.58 67.9295 958.793 59.7963 958.793 50.7705C958.793 43.6251 959.921 36.9969 962.178 30.8857C964.528 24.6805 967.819 19.2739 972.05 14.667C976.281 10.0602 981.216 6.48769 986.857 3.94922C992.499 1.31671 998.657 3.07748e-05 1005.33 0ZM298.337 95.8994H280.003V9.16699H249.541V21.1543C249.541 33.0947 249.071 43.4369 248.131 52.1807C247.191 60.9244 245.827 68.2584 244.041 74.1816C242.349 80.0107 240.279 84.7115 237.835 88.2842C235.485 91.7627 232.805 94.2545 229.797 95.7588C226.882 97.2631 223.732 98.0146 220.348 98.0146C218.561 98.0146 216.963 97.8738 215.553 97.5918C214.142 97.4038 212.92 97.1222 211.886 96.7461V92.374C214.236 91.9039 216.493 90.9639 218.655 89.5537C220.912 88.0495 222.98 85.7926 224.86 82.7842C226.741 79.7756 228.387 75.6856 229.797 70.5146C231.207 65.2497 232.288 58.6213 233.04 50.6299C233.792 42.5442 234.169 32.7187 234.169 21.1543C234.169 16.9235 233.557 13.5385 232.335 11C231.207 8.36776 228.527 7.05183 224.297 7.05176H222.887V2.82031H298.337V95.8994ZM324.95 2.82031C328.241 2.82033 330.779 3.38458 332.565 4.5127C334.446 5.64092 335.762 7.52176 336.515 10.1543C337.361 12.7868 337.783 16.4535 337.783 21.1543V47.9502L362.182 17.6289C364.25 14.9964 366.507 12.5514 368.951 10.2949C371.396 8.03856 374.122 6.25275 377.131 4.93652C380.139 3.52626 383.477 2.82033 387.144 2.82031H397.016V7.75684C391.657 7.75684 386.814 8.46179 382.489 9.87207C378.165 11.1884 374.404 13.8209 371.207 17.7695L350.194 43.7188L382.771 77.5654C385.122 80.104 387.661 82.5023 390.388 84.7588C393.208 86.9211 395.935 88.707 398.567 90.1172C400.493 91.0801 402.193 91.7654 403.666 92.1748L443.605 2.82031H449.952L481.542 78.1299C483.234 82.2667 485.304 85.5575 487.748 88.002C490.192 90.4463 493.013 91.8563 496.209 92.2324V95.7588C495.457 95.9468 494.376 96.0876 492.966 96.1816C491.65 96.3697 490.475 96.4638 489.44 96.4639C486.338 96.4639 483.047 96.088 479.568 95.3359C476.184 94.4898 472.893 92.7497 469.696 90.1172C466.594 87.4846 463.914 83.489 461.657 78.1299L458.414 70.2324H420.9L409.336 95.8994H405.195C404.161 96.2755 402.704 96.6047 400.823 96.8867C399.037 97.1687 397.063 97.3096 394.9 97.3096C391.422 97.3096 387.896 96.8872 384.323 96.041C380.751 95.1948 376.99 93.549 373.041 91.1045C369.186 88.66 365.002 85.0876 360.489 80.3867L337.783 56.6934V95.8994H319.45L319.309 21.1543C319.309 16.9235 318.698 13.5385 317.476 11C316.347 8.36761 313.667 7.05176 309.437 7.05176H308.026V2.82031H324.95ZM195.581 2.82031C198.871 2.82031 201.363 3.38464 203.056 4.5127C204.748 5.5469 205.924 6.95778 206.582 8.74414C207.24 10.4363 207.569 12.2224 207.569 14.1025V26.0908H203.338C203.338 20.0739 201.787 15.7488 198.685 13.1162C195.676 10.4837 191.351 9.16706 185.71 9.16699H163.004V44.4238H199.671V50.7705H163.004V89.5537H187.12C192.291 89.5537 196.663 88.4253 200.235 86.1689C203.902 83.8185 206.958 79.5868 209.402 73.4756L213.21 74.8867L209.12 86.0273C208.086 89.0359 206.723 91.4334 205.03 93.2197C203.432 95.0061 200.705 95.8994 196.851 95.8994H144.67V21.1543C144.67 16.9235 144.059 13.5385 142.837 11C141.709 8.36761 139.029 7.05176 134.798 7.05176H133.388V2.82031H195.581ZM508.403 2.82031C511.694 2.82033 514.232 3.38459 516.019 4.5127C517.899 5.64092 519.216 7.52176 519.968 10.1543C520.72 12.7868 521.096 16.4535 521.096 21.1543V44.4238H559.174V2.82031H577.507V77.5654C577.507 81.7963 578.071 85.2288 579.199 87.8613C580.421 90.3997 583.148 91.6689 587.379 91.6689H588.789V95.8994H571.866C568.576 95.8994 565.99 95.3828 564.109 94.3486C562.323 93.2204 561.054 91.3396 560.302 88.707C559.55 85.9805 559.174 82.2663 559.174 77.5654V50.7705H521.096V95.8994H502.762V21.1543C502.762 16.9235 502.151 13.5385 500.929 11C499.8 8.36762 497.12 7.05176 492.89 7.05176H491.479V2.82031H508.403ZM607.085 2.82031C610.375 2.82036 612.914 3.38454 614.7 4.5127C616.581 5.64092 617.896 7.52176 618.648 10.1543C619.401 12.7868 619.777 16.4534 619.777 21.1543V77.5654L660.676 2.82031H677.599V95.8994H659.266V21.1543L618.367 95.8994H601.443V21.1543C601.443 16.9235 600.833 13.5385 599.61 11C598.482 8.36756 595.802 7.05176 591.571 7.05176H590.161V2.82031H607.085ZM704.251 2.82031C707.542 2.82031 710.081 3.38446 711.867 4.5127C713.748 5.64092 715.063 7.52177 715.815 10.1543C716.568 12.7868 716.944 16.4534 716.944 21.1543V44.4238H755.021V2.82031H773.355V77.5654C773.355 81.7963 773.92 85.2288 775.048 87.8613C776.27 90.3997 778.997 91.6689 783.228 91.6689H784.638V95.8994H767.714C764.424 95.8994 761.838 95.3827 759.958 94.3486C758.172 93.2204 756.903 91.3396 756.15 88.707C755.398 85.9805 755.021 82.2664 755.021 77.5654V50.7705H716.944V95.8994H698.61V21.1543C698.61 16.9235 698 13.5385 696.777 11C695.649 8.36754 692.969 7.05177 688.738 7.05176H687.328V2.82031H704.251ZM824.087 2.82031C828.506 2.82031 833.113 3.10288 837.908 3.66699C842.797 4.13709 847.31 5.21781 851.447 6.91016C855.678 8.50848 859.11 10.9535 861.742 14.2441C864.375 17.5348 865.69 21.9539 865.69 27.501C865.69 31.5437 864.045 35.5396 860.755 39.4883C857.558 43.343 852.669 46.1163 846.088 47.8086C852.293 48.3727 857.088 49.7361 860.473 51.8984C863.951 54.0609 866.396 56.7408 867.807 59.9375C869.217 63.0401 869.922 66.4252 869.922 70.0918C869.922 75.4507 868.699 79.8224 866.255 83.207C863.904 86.5917 860.708 89.2241 856.665 91.1045C852.622 92.8909 848.109 94.16 843.126 94.9121C838.237 95.5702 833.301 95.8994 828.318 95.8994H797.292V21.1543C797.292 16.9235 796.681 13.5385 795.459 11C794.331 8.36754 791.651 7.05176 787.42 7.05176H786.01V2.82031H824.087ZM936.142 2.82031C939.432 2.82031 941.924 3.38462 943.616 4.5127C945.309 5.5469 946.484 6.95778 947.143 8.74414C947.801 10.4363 948.129 12.2224 948.129 14.1025V26.0908H943.898C943.898 20.0736 942.347 15.7487 939.244 13.1162C936.236 10.4837 931.911 9.16699 926.27 9.16699H903.564V44.4238H940.231V50.7705H903.564V89.5537H927.681C932.851 89.5536 937.223 88.4253 940.796 86.1689C944.463 83.8185 947.518 79.5868 949.963 73.4756L953.771 74.8867L949.681 86.0273C948.646 89.0359 947.283 91.4334 945.591 93.2197C943.992 95.0061 941.266 95.8994 937.411 95.8994H885.23V21.1543C885.23 16.9235 884.62 13.5385 883.397 11C882.269 8.36759 879.589 7.05176 875.358 7.05176H873.948V2.82031H936.142ZM1127 9.16699H1097.52V95.8994H1079.19V9.16699H1069.18C1064.19 9.16699 1060.25 10.4361 1057.33 12.9746C1054.42 15.4191 1052.96 19.7916 1052.96 26.0908H1048.73V14.1025C1048.73 12.2224 1049.06 10.4363 1049.72 8.74414C1050.37 6.95778 1051.55 5.5469 1053.24 4.5127C1055.03 3.38448 1057.52 2.82032 1060.72 2.82031H1127V9.16699ZM815.626 88.8486C816.66 89.1306 818.117 89.459 819.997 89.835C821.877 90.117 823.947 90.2588 826.203 90.2588C834.007 90.2587 839.93 88.5663 843.973 85.1816C848.109 81.797 850.178 77.002 850.178 70.7969C850.178 64.3096 848.156 59.4672 844.113 56.2705C840.165 52.98 834.195 51.335 826.203 51.335H815.626V88.8486ZM423.861 63.8857H455.734L440.221 27.0771L423.861 63.8857ZM824.087 8.46191C823.053 8.46193 821.878 8.50854 820.562 8.60254C819.339 8.69657 817.694 8.97918 815.626 9.44922V44.9883H826.203C830.058 44.9883 833.442 44.424 836.356 43.2959C839.365 42.0737 841.716 40.1462 843.408 37.5137C845.101 34.7872 845.947 31.2146 845.947 26.7959C845.947 22.0949 844.866 18.4275 842.703 15.7949C840.635 13.1625 837.908 11.2825 834.523 10.1543C831.233 9.02608 827.754 8.46191 824.087 8.46191Z" fill="url(#paint0_linear_57_258)"/>
<defs>
<linearGradient id="paint0_linear_57_258" x1="563.5" y1="0" x2="569" y2="113.5" gradientUnits="userSpaceOnUse">
<stop offset="0.278839" stop-color="white"/>
<stop offset="1" stop-color="#92A54C"/>
</linearGradient>
</defs>
</svg>
