<svg width="1119" height="123" viewBox="0 0 1119 123" fill="none" xmlns="http://www.w3.org/2000/svg">
<path d="M25.0986 73.2275H48.1279V1.29395H72.71V73.2275H95.7393V1.29395H120.838V73.2275H140.244V122.391H115.922V93.6689H0V1.29395H25.0986V73.2275ZM302.164 93.6689H277.065V21.7354H259.47C259.125 25.1853 258.693 29.0665 258.176 33.3789C257.745 37.6915 257.228 42.1338 256.624 46.7051C256.02 51.1901 255.373 55.5462 254.683 59.7725C253.993 63.9123 253.303 67.5347 252.613 70.6396C250.975 78.2298 248.084 84.1816 243.944 88.4941C239.891 92.8063 233.551 94.9628 224.927 94.9629C223.029 94.9629 221.261 94.833 219.622 94.5742C218.07 94.3155 216.56 93.9703 215.094 93.5391V74.2627C216.301 74.6077 217.379 74.9092 218.328 75.168C219.277 75.4267 220.269 75.5556 221.304 75.5557C222.684 75.5557 223.892 75.1679 224.927 74.3916C226.048 73.529 227.083 71.7605 228.031 69.0869C228.98 66.4131 229.929 62.2732 230.878 56.667C231.309 54.252 231.913 50.2846 232.689 44.7646C233.552 39.2446 234.457 32.7324 235.406 25.2285C236.441 17.6385 237.433 9.66025 238.382 1.29395H302.164V93.6689ZM1013.12 0C1017.6 8.72513e-06 1022.3 0.517767 1027.22 1.55273C1032.13 2.58772 1036.96 4.22629 1041.71 6.46875L1034.08 26.1338C1030.71 24.495 1027.3 23.1581 1023.85 22.123C1020.4 21.0018 1016.74 20.4414 1012.86 20.4414C1006.99 20.4414 1002.38 22.8565 999.014 27.6865C995.65 32.5165 993.969 39.2442 993.969 47.8691C993.969 56.5802 995.65 63.2217 999.014 67.793C1002.38 72.278 1007.47 74.5214 1014.28 74.5215C1018.33 74.5215 1022.26 73.9601 1026.05 72.8389C1029.93 71.7176 1033.82 70.3379 1037.7 68.6992V89.7871C1033.64 91.5983 1029.46 92.8927 1025.15 93.6689C1020.92 94.5315 1016.39 94.9629 1011.56 94.9629C1001.56 94.9629 993.365 92.9782 986.982 89.0107C980.6 85.0432 975.899 79.5237 972.88 72.4512C969.861 65.2924 968.352 57.0553 968.352 47.7402C968.352 38.4253 970.076 30.1881 973.526 23.0293C976.976 15.8705 982.023 10.2638 988.664 6.20996C995.392 2.06998 1003.54 0 1013.12 0ZM207.354 21.3467H177.468V35.8369H205.154V55.8906H177.468V73.3564H207.354V93.6689H152.498V1.29395H207.354V21.3467ZM496.228 93.6689H468.929L464.4 76.332H434.386L429.728 93.6689H374.579L347.151 46.834V93.6689H322.052V1.29395H347.151V46.0576L373.544 1.29395H400.972L372.509 45.4111L402.464 93.1611L432.444 0.905273H465.694L496.228 93.6689ZM531.235 35.5781H560.216V1.29395H585.314V93.6689H560.216V56.0205H531.235V93.6689H506.136V1.29395H531.235V35.5781ZM628.478 43.5996C628.478 47.3947 628.391 51.4492 628.219 55.7617C628.046 59.9879 627.787 63.4813 627.442 66.2412H627.96L665.997 1.29395H694.589V93.6689H671.302V53.6914C671.302 51.3626 671.344 48.6887 671.431 45.6699C671.517 42.5649 671.647 39.5031 671.819 36.4844C672.078 33.4656 672.293 30.8779 672.466 28.7217H671.948L633.911 93.6689H605.19V1.29395H628.478V43.5996ZM739.577 35.5781H768.558V1.29395H793.656V93.6689H768.558V56.0205H739.577V93.6689H714.478V1.29395H739.577V35.5781ZM845.747 1.29395C859.116 1.29397 868.646 3.27764 874.339 7.24512C880.031 11.2127 882.878 16.9056 882.878 24.3232C882.878 28.3768 882.145 31.8267 880.679 34.6729C879.212 37.4329 877.358 39.6327 875.115 41.2715C872.959 42.9102 870.716 44.031 868.388 44.6348V45.2822C870.889 45.886 873.39 46.9205 875.892 48.3867C878.393 49.853 880.463 52.0528 882.102 54.9854C883.827 57.8316 884.689 61.7127 884.689 66.6289C884.689 74.9952 881.541 81.5938 875.245 86.4238C868.949 91.2539 860.367 93.6689 849.499 93.6689H813.532V1.29395H845.747ZM955.565 21.3467H925.68V35.8369H953.366V55.8906H925.68V73.3564H955.565V93.6689H900.71V1.29395H955.565V21.3467ZM1119 21.7354H1096.49V93.6689H1071.52V21.7354H1049.01V1.29395H1119V21.7354ZM838.502 74.3916H847.299C851.611 74.3916 854.63 73.486 856.355 71.6748C858.081 69.7773 858.943 67.4049 858.943 64.5586C858.943 62.0575 858.08 59.8584 856.355 57.9609C854.63 55.9772 851.44 54.9854 846.782 54.9854H838.502V74.3916ZM449.264 16.1719C448.919 18.2419 448.358 20.8296 447.582 23.9346C446.892 27.0395 446.159 30.1014 445.383 33.1201C444.693 36.1389 444.089 38.6839 443.571 40.7539L439.561 55.8906H459.226L455.215 40.7539C454.784 39.1152 454.181 36.7862 453.404 33.7676C452.628 30.6625 451.851 27.4709 451.075 24.1934C450.299 20.9158 449.695 18.2419 449.264 16.1719ZM838.502 36.7432H846.006C850.146 36.7431 853.035 35.8802 854.674 34.1553C856.399 32.4303 857.262 30.3603 857.262 27.9453C857.262 22.7703 853.337 20.1827 845.488 20.1826H838.502V36.7432Z" fill="white"/>
</svg>
