<svg width="461" height="787" viewBox="0 0 461 787" fill="none" xmlns="http://www.w3.org/2000/svg">
<g clip-path="url(#clip0_1_1101)">
<path d="M230.5 829.5C230.5 829.5 230.5 745.721 230.5 726M230.5 -0.5C230.5 -0.5 230.5 442.284 230.5 726M230.5 726C230.5 620.5 323 518 460.5 553M230.5 451C230.5 345.5 323 243 460.5 278M230.5 195.5C230.5 89.9998 323 -12.5002 460.5 22.4998" stroke="#96B908" stroke-width="11"/>
<path d="M230 827C230 827 230 746.221 230 726.5M230 0C230 0 230 442.784 230 726.5M230 726.5C230 621 137.5 518.5 -0.00012207 553.5M230 451.5C230 346 137.5 243.5 -0.00012207 278.5M230 196C230 90.4998 137.5 -12.0002 -0.00012207 22.9998" stroke="#4D9215" stroke-width="11"/>
</g>
<defs>
<clipPath id="clip0_1_1101">
<rect width="461" height="787" fill="white"/>
</clipPath>
</defs>
</svg>
